<?xml version='1.0' encoding='utf-8'?>
<svg xmlns="http://www.w3.org/2000/svg" enable-background="new 0 0 2200 1130" version="1.1" viewBox="0 0 2200 1130">
<path d="m2176 771.19c-9-0.03-17.28-3.89-25.3-7.51-1.77 1.49-3.56 2.94-5.31 4.42-4.96-0.99-10.03-0.95-15.02-1.49-6.75-1.47-13.66-1.91-20.41-3.32-4.1-0.67-7.97-2.32-12.12-2.69-5.35-0.64-11.06-0.91-15.54-4.26-1.58-0.22-3.16-0.28-4.63-0.71-2.3-1.45-4.12-3.77-6.84-4.43-3.15 0.11-6.31 0.75-9.39-0.21-2.13-1.76-4.32-3.43-6.43-5.18-0.45 0.23-1.36 0.69-1.82 0.91-3.25-0.65-6.48-1.3-9.7-1.99-3.11-2.27-6.85-3.86-9.17-7.03-1.76-2.28-3.57-4.51-5.36-6.74-2.37 0.03-4.73 0.06-7.06 0.14-1.2-1.91-1.95-4.04-2.28-6.24-2.85-2.53-6.66-3.04-10.2-3.9-2.17-5.83-7.55-10.34-7.72-16.85-1.9-1.47-3.82-2.89-5.7-4.34-0.01-0.63-0.02-1.89-0.02-2.51-2.62-0.42-5.21-0.89-7.8-1.32-0.51-1.07-1-2.12-1.47-3.17-5.05 0.7-10.01 1.83-15.06 2.42-2.3-5.86-6.35-11.43-12.75-13.05-5.67-1.57-8.6 4.74-12.23 7.81-1.4-0.75-2.79-1.48-4.16-2.22-1.66-2.28-3.51-4.39-5.54-6.31-2.33-0.72-4.53-1.74-6.53-3.07-4.58-1.99-9.59-2.84-14.56-2.33-1.5-0.06-2.65 1.01-3.79 1.73-0.81 0.13-1.57 0.27-2.3 0.42-2.9 3.38-6.46 6.18-10.38 8.27-2.27 1.17-4.94 1.4-7.05 2.83-1.16 2.11-1.78 4.46-2.56 6.73-1.14-0.01-2.26-0.01-3.36 0-1.59 3.27-3.2 6.54-4.71 9.85-3.69 0.63-7.1 2.2-10.67 3.16-3.74-0.55-7.2-2.52-11.08-2.27-1.31-1.54-2.56-3.12-3.72-4.74-1.3 0.03-2.57 0.07-3.8 0.13-0.45 0.35-1.33 1.05-1.78 1.4-1.68 0.54-3.29 1.25-4.66 2.34-3.02 0.13-6.03 0.14-9.03 0.15 0.03 0.75 0.08 2.25 0.1 3.01-0.98 0.58-1.9 1.23-2.88 1.74-3.98-2.02-8.17-3.53-12.38-4.93-0.71 1.1-1.45 2.17-2.22 3.22-4.08-1.43-7.91-3.49-11.87-5.18-0.73 0.68-1.44 1.36-2.13 2.05-0.5 0.06-1.52 0.16-2.02 0.22-2.19 1.79-4.48 4.32-7.59 3.85-7.89-0.82-15.56-2.96-23.24-4.85-5.35-0.41-10.5-1.98-15.81-2.61-8.78-1.16-17.52-2.44-26.17-4.35-1.44 0.9-2.88 1.79-4.32 2.67-4.21-1.87-8.19 1.23-12.42 1.1-4.19 0-8.41 0.03-12.44 1.29-2.33 1.31-4.79 2.62-7.51 2.69-5.42 0.28-10.63 2.14-16.07 2.07-4.46-0.23-8.37 2.34-12.76 2.59-5.12 0.41-10.19 1.87-15.34 1.33-3.59-0.7-6.85-2.44-10.3-3.53-1.65 0.71-3.37 2.77-5.19 1.41-1.67-0.84-3.07-2.06-4.46-3.23-2.76 0.42-6.02-0.13-7.97 2.32-4.45-0.72-8.78-3.27-13.34-2.16-4.73-2.09-9.79-2.66-14.88-2.83-3.59-3.1-8.46-1.15-12.68-1.65-5.92-0.73-11.77 0.56-17.45 2.06-3.52 2.25-7.54 3.69-11.6 4.53-6.33 0.41-12.69 0.19-19.01-0.13-3.62 0.43-7.21-0.07-10.72-0.85-1.02-1.26-2.04-2.51-3.02-3.75-1.87-0.05-3.72-0.1-5.55-0.12-0.99 1.29-2.01 2.56-3.06 3.8 0.87-4.18 3.08-7.85 4.9-11.65-1.46-0.07-2.92-0.13-4.35-0.18-0.27-0.39-0.8-1.18-1.07-1.57 0.65-2.92 0.86-5.9 1.01-8.86-2.81 0.64-5.52 1.59-8.18 2.63-0.02-1.43-0.02-2.85-0.01-4.26-0.92 0.08-2.78 0.26-3.7 0.34 0.25-1.16 0.52-2.32 0.81-3.47-0.96-0.87-1.89-1.75-2.78-2.65-0.43-0.07-1.29-0.2-1.73-0.27-1.19-0.83-2.37-1.64-3.55-2.43-0.11-1.38-0.2-2.75-0.28-4.11-2.96 1.51-5.52 3.63-8.29 5.42-0.5-2.98-1.03-5.94-1.71-8.88-0.31-0.4-0.92-1.22-1.22-1.63 0.07-3.14 0.5-6.28 0.67-9.41 2.47-2.74 4.02-6.14 5.03-9.66 1.92-6.21 5.17-11.86 8.34-17.5 1.05-0.96 2.12-1.92 3.21-2.88 1.21-3.94 2.01-7.99 3.06-11.98 0.24-1.69 1.83-2.49 3-3.5 1.39-3.99 3.22-7.97 3.15-12.28 0.03-3.95 1.11-7.77 2.06-11.57 1.24 0.13 2.51 0.27 3.8 0.32 0.01-1.81-0.09-3.62-0.3-5.41 1.14-1.27 2.27-2.55 3.44-3.81-0.03-1.34-0.04-2.66-0.03-3.98 1.35-1.05 2.68-2.13 4.06-3.16-0.07-0.61-0.23-1.81-0.31-2.41h3.22c0.04-0.54 0.12-1.61 0.16-2.14 2.94-1.29 1.86-4.17-0.44-5.3 0.84-3.29-1.15-6.14-4.09-7.43-0.18-0.53-0.53-1.59-0.71-2.12 1.45-0.02 2.91-0.03 4.39-0.04-0.29-1.98-0.57-3.96-0.92-5.92 0.42-0.34 1.25-1.02 1.66-1.37 0.02-0.9 0.04-2.71 0.06-3.61 1.22 1.23 2.46 2.47 3.69 3.75 1 0.02 2.02 0.06 3.06 0.1 1.53 3.05 2.35 6.35 2.72 9.74 0.89-1.13 1.76-2.27 2.67-3.4-0.8-1.35-1.58-2.71-2.28-4.08 3.35 1.49 2.86 5.3 3.67 8.27 1.46 2.47 3.32 4.72 5.33 6.8 2.6 2.12 6.12 2.41 9.29 3.12-0.63-3.64-1.23-7.28-1.38-10.97-1.16-1.17-2.29-2.35-3.4-3.53 3.65-1.89 6.35 1.99 9.28 3.54 1 3.62 3.66 7.61 7.82 7.57 1.06-1.08 2-2.28 2.94-3.48 2.07 0.29 4.14 0.47 6.24 0.68-1.31-3.64-4.15-6.31-6.93-8.83-3.43-1.09-6.7-2.58-9.85-4.27-0.01-1.48 0.02-2.96 0.05-4.43-0.95-1.23-1.86-2.48-2.74-3.73 2.73 1.25 5.68 2.05 8.3 3.58 1.3 1.51 1.38 3.64 1.91 5.5 1.6-0.01 3.2-0.02 4.83-0.02-0.51-1.15-1-2.3-1.47-3.44 1.41 0.44 2.86 0.91 4.3 1.4-0.07-1.15-0.11-2.28-0.13-3.42-3.17-1.82-6.25-3.83-8.78-6.47 2.55 0.62 5.07 1.42 7.63 2.11-2.05-2.28-4.36-4.31-6.45-6.53 3.08 1.22 6.1 2.62 9.2 3.82 3.76 3.35 6.99 8.04 12.24 9.04-2.41-4.69-7.43-7.33-9.58-12.17-1.34-1.58-2.65-3.19-3.85-4.85 4.86 0.7 6.59 6.14 11.26 7.14-1.97-3.44-4.34-6.63-6.02-10.21 3.89 1.65 7.28 4.23 11.02 6.2-1.43-2.61-3.15-5.03-4.74-7.52 1.95 1.41 3.63 3.17 5.33 4.9 1.26 0 2.53 0.01 3.82 0.02-0.08-1.42-0.12-2.83-0.15-4.24-3.49-1.59-6.8-3.54-9.71-6.02 1.42 0.09 2.88 0.21 4.35 0.34 2.02 1.92 4.12 3.79 6.31 5.55 0-0.88 0.01-2.64 0.02-3.52 1.22 0.38 2.47 0.75 3.74 1.12-1.15-1.58-2.31-3.11-3.5-4.62-0.4 0.33-1.19 1-1.59 1.33-2.49-1.27-5.03-2.44-7.38-3.94 6.23 0.24 12.48 1.14 18.39 3.2 0.6-1.33 1.22-2.65 1.86-3.97-4.53-1.48-9.42-2.28-13.29-5.24 2.53 0.24 5.04 0.69 7.57 1.1-1.15-2.1-2.44-4.11-3.74-6.09 0.5-0.29 1.48-0.87 1.97-1.17 1.18 0.64 2.4 1.28 3.63 1.91 0.97-0.41 1.97-0.81 2.99-1.21 1.8-0.73 3.63-1.39 5.51-1.99-0.05-0.69-0.14-2.07-0.19-2.76 1.7-0.37 3.41-0.72 5.16-1.04l0.03-0.72c-2.54-0.06-5.13 0.24-7.59-0.37-1.74-0.85-3.24-2.08-4.8-3.15 0.37-0.3 1.13-0.91 1.5-1.22 1.6 0.35 3.19 0.67 4.83 0.98-0.01-1.61 0.01-3.21 0.04-4.82-3.24-0.14-6.52-0.65-8.97-2.94 2.5 0.3 5 0.73 7.49 1.27-0.96-1.05-1.95-2.05-2.82-3.12 0.58-0.35 1.75-1.05 2.33-1.4-0.51-2.15-0.98-4.31-1.38-6.47 1.78 0.87 3.57 1.74 5.4 2.57-0.07-0.83-0.21-2.5-0.28-3.33 1.59 0.43 3.16 0.85 4.8 1.26-2-2.4-3.95-4.84-5.69-7.43 1.67 0.29 3.36 0.58 5.06 0.87-1.75-2.11-4.36-2.87-6.87-3.55-1.55 0.38-3.09 0.72-4.62 1.05 1.03-0.93 2.07-1.87 3.14-2.8 2.4-0.56 4.91-1.33 6.33-3.56-1.7 0.24-3.27 0.55-4.9 0.88-2.19-0.63-4.35-1.27-6.49-2 2.1 0.11 4.21 0.23 6.34 0.34 0.03-0.72 0.1-2.17 0.13-2.9 2.62-0.24 5.36-0.23 7.88-1.17-0.25-1.7-0.65-3.37-0.97-5.05-2.52-2.5-5.97-1.47-9.07-1.25 2.82-2.11 6.49-2.22 9.79-3.14-0.62-1.21-1.24-2.4-1.97-3.51-4.11 0.03-8.28 1.31-12.3-0.15 2.63-0.37 5.26-0.82 7.78-1.72-0.54-1.49-1.09-2.99-1.58-4.47-1.89 0.41-3.75 0.89-5.6 1.36 0.01-0.46 0.03-1.39 0.03-1.85 2.39-0.62 4.87-0.99 7.17-1.96 0.51-1.14 0.98-2.31 1.41-3.49-2.79 0.8-5.54 1.68-8.28 2.58 0.58-1.73 0.71-3.4-1.36-4.06 2.16-1.59 4.33-3.26 5.95-5.46-2.11 0.34-4.15 0.79-6.21 1.24 1.26-3.44 2.65-6.83 3.73-10.33-2.45 0.42-4.86 0.92-7.28 1.41-0.04-0.7-0.13-2.1-0.18-2.79l2.28-1.84c-0.33-1.05-0.62-2.09-0.91-3.12 1.25-2.03 2.46-4.1 3.66-6.17-0.55-0.4-1.65-1.21-2.2-1.61 0.32-2.14 0.73-4.26 1.16-6.38-0.69-0.08-2.09-0.24-2.78-0.32-0.12-1.88-0.11-3.77-0.42-5.63-2.56-2.3-6.46-1.85-9.63-2.55-0.08 0.87-0.22 2.62-0.29 3.49-1.21-0.49-2.4-0.98-3.58-1.46-0.12 0.65-0.35 1.95-0.47 2.6-1.51 1.07-3 2.15-4.48 3.22-0.12 0.43-0.37 1.28-0.49 1.71-1.25 1.31-2.42 2.67-3.59 4.03-0.35 2.6-0.84 5.17-1.32 7.75-0.47-0.17-1.42-0.5-1.89-0.67-0.02 2.33-0.03 4.65-0.04 6.98-1.07-0.52-2.12-1.04-3.15-1.56-0.48 0.4-1.45 1.19-1.94 1.58-0.29-0.61-0.88-1.83-1.17-2.44-0.76 0.01-2.27 0.04-3.03 0.06 0.56 1.05 1.14 2.11 1.73 3.17-1.17-0.53-2.33-1.05-3.48-1.56 0.11 1.54 0.25 3.08 0.4 4.62-1.37-0.92-2.7-1.84-4.04-2.74l-0.6 3.44c-1.15-1.93-2.31-3.85-3.49-5.74-0.56 0.63-1.08 1.27-1.56 1.93 0.7 3.08 1.97 6.01 2.62 9.11-1.76-1.85-3.28-3.9-4.87-5.87-0.46 1.85-1.03 3.69-1.23 5.6 0.6 1.1 1.4 2.09 2.15 3.13-0.57-0.03-1.73-0.1-2.3-0.13 0 0.74 0.01 2.24 0.01 2.98-0.74 0.01-2.22 0.03-2.96 0.03-0.08 1.02-0.13 2.05-0.17 3.08-1.21 1.21-2.34 2.5-3.36 3.86-0.46-0.33-1.39-0.99-1.85-1.32 0.98 2.37 2.28 4.7 2.53 7.31-1.62 0.91-3.5 1.1-5.25 1.5 0.27 1.58 0.55 3.17 0.86 4.77-0.74-0.27-2.23-0.8-2.97-1.07-0.82 0.82-1.52 1.72-2.23 2.6 1.67 2.27 3.34 4.56 5.17 6.72 0.34 1.79 0.68 3.58 1.04 5.38-2.16-2.59-4.1-5.35-6.52-7.7-0.18 2.51-0.27 5.02-0.38 7.54-0.85-1.16-1.67-2.33-2.45-3.5-0.43-0.29-1.29-0.87-1.72-1.15l-1.8-0.12c-1.32-1.79-3.5-1.97-5.48-2.28 0.64 1.28 1.32 2.56 2.03 3.83l-0.52 1.64c3.64 0.44 3.27 4.31 4.14 7.01-1.06-0.51-2.1-1.01-3.12-1.51-0.03-1.21-0.03-2.41-0.01-3.61-1.45 0.02-2.89 0.04-4.3 0.07 0.89 1.86 1.82 3.71 2.71 5.58-0.67 0.19-2.01 0.55-2.69 0.74-1.78-3.18-4.2-6.05-7.4-7.85 0.12 1.71 0.47 3.41 0.52 5.14-0.93 0.67-1.91 1.23-2.86 1.82-2.62-2.31-5.79-4.38-6.55-8.04 2.65 2.02 5.12 4.34 8.03 6.03-1.63-4.35-5.47-7.17-8.31-10.64 0.33-2.28 1.21-4.43 1.57-6.7-0.52-1.52-1.49-2.84-2.21-4.24 1.14 0.38 2.34 0.79 3.53 1.18 1.3-2.05 2.73-4.02 4.14-6-0.94-1.34-1.85-2.68-2.72-4.03 0.77 0 2.29-0.01 3.06-0.01 1.06 0.85 2.16 1.69 3.27 2.52 0.07-0.8 0.2-2.4 0.26-3.2 0.95-0.48 1.91-0.95 2.9-1.41 0.5 0.34 1.52 1.02 2.02 1.35 1.56-1.08 3.12-2.19 4.69-3.3-2.87-0.54-5.77-0.9-8.65-1.21v-1.69c2.5-0.14 5.11 0.17 7.55-0.57 1.2-0.31 1.72-1.09 1.57-2.34-3.27-1.32-6.83-1.73-10.01-3.24-2.44-0.7-2.11-3.76-2.99-5.67 1.9-1.87 3.78-3.76 5.68-5.64 0.07-0.62 0.23-1.85 0.3-2.46 1.62-0.52 3.24-1.04 4.9-1.52v-1.45c-0.94-0.12-2.83-0.36-3.77-0.49 1.3-0.38 2.63-0.74 3.97-1.09-0.5-1.19-1.01-2.37-1.47-3.55 0.78-0.07 2.36-0.21 3.15-0.28 0.5-1.81 0.98-3.61 1.43-5.43 1.07-0.75 2.13-1.51 3.22-2.26 0.71-0.07 2.12-0.2 2.83-0.27-1.28-4.21-2.34-8.95-6.1-11.7-0.12 2.58 0.05 5.16-0.12 7.74-1.05 1.1-2.23 2.03-3.33 3.04-1.05-0.44-2.09-0.87-3.11-1.28 0.37 1.57 0.8 3.15 1.23 4.72-1.58 1.15-3.37 1.6-5.25 0.93 0.56 0.86 1.14 1.72 1.73 2.6-0.71 0.04-2.11 0.11-2.81 0.14-1.16 2-2.34 3.98-3.7 5.84-1.4 0.97-2.83 1.9-4.25 2.8 1.61-2.46 3.3-4.86 4.85-7.37-1.11-0.21-3.31-0.64-4.42-0.85 1.45-1.45 3.36-1.81 5.36-1.86-1.38-1.53-2.71-3.09-3.99-4.69 0.79-0.77 1.59-1.54 2.41-2.31 0.62 0.5 1.87 1.48 2.5 1.98 0.98-0.86 1.99-1.7 2.94-2.62-1.72-1.66-3.67-3.06-5.56-4.49 1-5.76 2.63-11.42 3.14-17.27-1.75 1.3-3.33 2.81-4.78 4.42-0.59 0.19-1.76 0.56-2.34 0.75 0.41 1.28 0.84 2.57 1.31 3.85-1.42-0.09-2.81-0.18-4.19-0.27 0.48 0.96 0.98 1.93 1.5 2.9-0.66-0.25-1.98-0.74-2.64-0.98 0.49 1.47 1.01 2.95 1.54 4.43-1.51-0.51-2.98-1.03-4.45-1.54 0.52 1.84 0.99 3.67 1.48 5.54-1.78-1.21-2.35-3.15-2.75-5.11-1.75-0.45-3.51-0.91-5.24-1.34 1 2.11 2.23 4.11 3.66 5.98-0.03 2.52 0.82 5.73-2 7.14 0.49 0.93 0.99 1.87 1.53 2.83-0.88 0.16-2.65 0.5-3.54 0.67 0-0.92 0.01-2.75 0.01-3.66-1.68 0.22-3.34 0.46-4.97 0.72-1.37-3.09-1.8-7.55-5.9-8.04-1.26-1.39-2.47-2.8-3.72-4.18-0.17 1.07-0.51 3.21-0.68 4.27-2.15-2.91-4.01-6.11-6.77-8.5 0.21 3.53 0.55 7.11 1.54 10.53 1.82 3.76 4.64 6.99 6.07 10.98-1.37-1.09-2.67-2.2-3.95-3.34-2.15-0.42-4.28-0.86-6.41-1.25 3.14 4.43 8.3 6.9 11.13 11.59-4.84-2.15-8.76-5.8-13.28-8.48 0.01 0.53 0.04 1.6 0.05 2.14 2.42 1.7 4.73 3.6 6.65 5.89-2.52-1.04-4.96-2.22-7.39-3.42-0.52 0.85-0.99 1.72-1.43 2.6 3.63 3.67 8.69 5.21 13.43 6.9-1.82 0.82-3.65 1.59-5.49 2.32 0.59 0.86 1.21 1.72 1.84 2.59-2.53-0.47-5.04-0.96-7.56-1.36-0.05 0.64-0.15 1.91-0.2 2.54 4.76 0.85 9.62 1.79 14.03 3.87-0.11 1.25-0.33 2.49-0.52 3.74 1.07 0.72 2.13 1.45 3.23 2.21-3.02-0.02-6.02-0.33-8.88-1.28 0.72-0.42 2.16-1.24 2.88-1.65-1.71-0.6-3.43-1.16-5.13-1.7-5.12-3.03-10.95-4.54-16.7-5.84 0.36 0.84 1.08 2.52 1.44 3.36-1.39-0.83-2.73-1.65-4.05-2.52-1.52-0.59-3.02-1.18-4.48-1.81 0.92-0.26 2.76-0.77 3.69-1.02-1.3-1.87-2.6-3.71-3.84-5.59-1.06-0.05-2.11-0.09-3.13-0.13-1.87-1.8-3.59-3.86-5.94-5.03-0.25 0.16-0.76 0.47-1.01 0.63-0.54 1.17-0.03 2.44 0.06 3.66-0.53-0.08-1.59-0.23-2.13-0.3-2.98-3.64-6.67-6.71-11.16-8.24-0.5-0.91-0.98-1.82-1.43-2.72 1.6 0.03 3.23 0.07 4.88 0.11 2.41 2.84 4.68 5.8 7.23 8.53 0.44-0.45 1.32-1.35 1.76-1.79 0.25-1.88-0.28-3.71-0.71-5.5 0.49 0.13 1.48 0.39 1.97 0.52-0.02-1.21-0.02-2.42 0-3.63-5.97-0.1-12.28-1.46-16.44-6.07-0.7-0.02-2.09-0.06-2.79-0.08 0.98-1 1.96-2 2.95-3.02 0.6 0 1.8-0.01 2.41-0.02-0.02 0.66-0.04 1.99-0.06 2.65 3.54 1.67 7 3.56 10.77 4.73-1.47-2.21-3.5-3.92-5.43-5.69 8.52 1.56 15.43 6.85 22.84 10.91-0.32-1.45-0.63-2.88-0.95-4.31 0.3-0.42 0.92-1.26 1.23-1.68-3.23-1.53-6.48-3.04-9.27-5.29 3.29-2.05 7.08-0.64 10.62-0.26-2.66-4.23-8.51-4-11.55-7.95 3.17 0.35 6.36 0.65 9.57 0.67-2.37-3.15-6.49-3.56-9.9-4.95 0-0.54-0.02-1.61-0.02-2.15-1.27-0.94-2.52-1.92-3.71-2.92 5.4 0.31 9.97 3.75 15.42 3.92-1.09-0.91-2.21-1.81-3.28-2.69 0.73-1.01 1.47-2.03 2.22-3.05 0.98 0.02 1.98 0.05 3 0.08 0.41-0.49 1.21-1.46 1.61-1.94 2.19-0.09 4.37-0.19 6.58-0.33-1.1-0.87-2.21-1.71-3.32-2.52-2.16 0.42-4.33 0.74-6.48 1.04-0.06-0.52-0.16-1.55-0.22-2.07 4.82-0.32 9.99-0.55 14.08-3.44-1.02-0.32-3.06-0.95-4.08-1.26 5.04-0.73 10.1-1.41 15.2-1.62 0-0.68 0.02-2.02 0.02-2.69-0.71-0.51-1.41-1.01-2.08-1.5-2.91 0.33-5.85 0.5-8.75 0.24 0.89-1.04 1.86-2.01 2.9-2.91-0.96-1.36-1.93-2.69-2.9-4 3.03-2.78 6.83-4.46 10.8-5.44 0.02-0.37 0.05-1.11 0.06-1.48-5.3 1.11-10.65 2.15-16.08 2.2 2.26-2.05 4.87-3.67 7.27-5.55-1.46-1.88-3.19-3.51-4.85-5.17 0.75-1.66 1.46-3.39 1.13-5.26 1.64-3.33 3.76-6.42 5.07-9.92-3.43 1.43-6.34 3.73-9.15 6.1-1.6 2.23-3.26 4.41-4.88 6.62-0.86-0.85-1.73-1.69-2.56-2.53-0.06-2.19-0.09-4.37-0.11-6.55-0.78-0.03-2.32-0.09-3.09-0.13-0.95 4.67-1.55 9.45-3.31 13.9 0.18-2.65 0.45-5.3 0.68-7.95-1.18 0.14-2.34 0.29-3.48 0.44-1.06-1.84-2.25-3.59-3.78-5.05-1 2.9-2.07 5.78-3.36 8.58-0.33-0.93-0.99-2.78-1.31-3.71-1.6 1.89-2.24 4.28-2.6 6.68-0.35 0.34-1.05 1.01-1.4 1.35-1.08-0.51-2.14-1.01-3.18-1.5-0.04 1.46-0.06 2.92-0.06 4.38l-0.59-0.05c-0.71-1.17-1.39-2.32-2.08-3.47-0.57 0.41-1.69 1.23-2.26 1.64-1.66-0.57-3.33-1.11-4.98-1.62 2.31-0.32 4.37-1.34 5.79-3.23-3.03-0.61-6.12-0.64-9.17-0.3 0.48-0.65 1.45-1.96 1.93-2.61-2.44-1.37-5.25-1.42-7.95-1.43 0.29-0.35 0.88-1.04 1.18-1.39-0.55-1.07-1.05-2.15-1.56-3.22 1.1-1.08 2.21-2.16 3.32-3.25-1.57-0.01-3.11 0-4.64 0.02v-0.93c2.59-0.48 5.19-1 7.81-1.4 0.95-2.02 1.89-4.03 2.74-6.1-7.12 1.02-13.25 5.05-20.22 6.57 1.74-1.23 3.57-2.35 5.41-3.46 0.43-1.16 0.9-2.31 1.39-3.46 3.59-1.57 7.7-2.94 9.75-6.59-3.7 0.47-7.24 1.61-10.76 2.75-0.04-0.62-0.13-1.85-0.17-2.47-0.85-0.01-2.56-0.03-3.41-0.04 2.14-1.98 4.33-3.92 6.3-6.08-1.88 0.31-3.7 0.68-5.54 1.03 1.44-1.58 2.95-3.11 4.39-4.71-1.56-0.11-3.1-0.2-4.62-0.28-0.09-1.51-0.17-3-0.24-4.5-1.17 0.82-2.32 1.66-3.44 2.51-1.07-0.76-2.13-1.51-3.18-2.25-0.22-0.46-0.67-1.39-0.89-1.86 0.33-1.74 0.61-3.49 0.93-5.23-1.61 0.48-3.19 0.99-4.75 1.52-1.84-2.26-3.59-4.59-5.52-6.76-0.06-3.22-0.04-6.47 0.83-9.6 2.78-1.62 4.81-4.27 5.81-7.32-0.84-0.05-2.52-0.16-3.36-0.21-0.45-1.01-0.88-2.01-1.29-3.01 0.88-0.99 1.77-1.97 2.66-2.97-1.84-0.07-3.62-0.12-5.43-0.19-0.38-2.71-0.85-5.4-1.35-8.08-0.71 0-2.12 0.01-2.82 0.01 0.1 1.64 0.22 3.28 0.36 4.93-0.71 0.06-2.12 0.18-2.83 0.24 0.57 1 1.18 2.01 1.79 3.01-0.05 1.84 0.72 3.47 1.62 5.02-0.38 0.65-0.73 1.29-1.06 1.94 0.98 0.92 1.94 1.86 2.89 2.85-2.59-1.24-5.73-3.16-8.23-0.61 2.02 2.15 6.05 3.23 5.22 6.9-0.91-0.34-2.74-1.02-3.65-1.36 1.74 2.05 3.77 3.83 5.72 5.7-0.54 0.57-1.62 1.71-2.16 2.28 0.46 0.65 1.39 1.95 1.85 2.6-2.83 1.06-5.69 0.22-8.52-0.19-1.69 0.33-3.25 1.06-4.83 1.65-0.57-0.76-1.12-1.52-1.65-2.27-3.69-1.74-6.64-4.59-9.58-7.33-0.3 3.82-0.02 7.78 2.94 10.58-3.24 0.95-7.87 0.52-8.55 4.79 1.52 0.08 3.05 0.16 4.59 0.24 0.08 0.73 0.25 2.19 0.33 2.91-0.62 0.07-1.87 0.2-2.49 0.26 0.42 1.62 0.85 3.24 1.3 4.86h-4.02c-0.04 0.54-0.12 1.64-0.15 2.18-1.97 0.86-1.73 2.53-1.13 4.21-1.28-0.59-2.55-1.18-3.81-1.75 0.22 0.79 0.67 2.35 0.89 3.14-1.36-0.88-2.62-1.76-3.94-2.63-1.32 0.92-2.66 1.78-4 2.62 0.42 1.63 0.84 3.26 1.26 4.9-2.38-2.16-4.38-4.67-5.88-7.51-1.19-0.08-2.35-0.17-3.5-0.25 0.49 1.59 1.01 3.17 1.52 4.77 0.86 0.48 1.74 0.97 2.64 1.46 0.04 0.57 0.13 1.69 0.17 2.26 0.82 1.19 1.63 2.4 2.45 3.63-2.52-1.5-4.98-3.07-7.5-4.54-0.03 1.34-0.04 2.68-0.03 4.02 1.99 1.16 3.98 2.36 5.77 3.83-1.88-0.41-3.58-1.18-5.15-2.22-1.36 0.12-2.7 0.25-4.03 0.39 0.78 1.3 1.57 2.6 2.39 3.91 3.45 0.9 6.33 3.02 8.6 5.74-1.77-0.42-3.52-0.88-5.26-1.3 2.13 3.48 6.3 6.5 5.31 11.07 0.24 0.73 0.5 1.46 0.79 2.2 0.82 0.62 1.63 1.28 2.41 1.99-0.26 4.29-1.11 8.55-0.98 12.89-0.39 0-1.16 0-1.55-0.01-1.05-2.95-2.15-5.89-2.96-8.92-1.54-0.05-3.08-0.09-4.58-0.12 0.8 2.29 1.56 4.59 2.22 6.94-2.22-2.48-4.02-5.3-6.25-7.76 0.61 2.36 1.36 4.69 2.14 7.01-1.03 0.41-2.05 0.82-3.05 1.23-1-1.73-2.28-3.35-2.8-5.3-0.01-1.77 0.37-3.51 0.64-5.25 2.04-5.33 5.18-10.18 6.61-15.74-1.33-0.04-2.65-0.07-3.96-0.1-1.39 2.06-2.82 4.08-4.27 6.08-0.72-0.02-2.17-0.06-2.9-0.07-0.66 1.59-1.36 3.17-2.01 4.76-1.1-2.52-0.79-5.2-0.15-7.79-0.38 0.01-1.14 0.02-1.52 0.03-0.79 1.99-1.62 3.97-2.55 5.89 0.02-3.98 0.64-7.96 0.24-11.93-1.63 0.01-3.24 0.02-4.84 0.04-0.29 0.64-0.87 1.91-1.16 2.55-0.14 1.34-0.26 2.68-0.37 4.03-2.59-1.59-5.06-3.38-7.37-5.33 0.36-0.43 1.08-1.28 1.44-1.71-1.01-1.8-1.99-3.62-2.97-5.42-1.98 0.44-3.99 0.82-5.97 1.18 0.03 0.52 0.08 1.56 0.11 2.08 1.13 1.53 2.26 3.07 3.38 4.62-0.61 0-1.83 0.01-2.45 0.02-0.02 1.92-0.03 3.85-0.03 5.78 1.09 0.77 2.2 1.54 3.34 2.3-0.46 0.41-0.89 0.81-1.32 1.22-1.14-1.04-2.28-2.07-3.42-3.08-1.55 1.94-1.45 4.22-0.64 6.44 2.41 1.36 4.77 2.8 6.97 4.51-4.33-0.52-8.54-1.69-12.85-2.23 3.13 3.61 8.27 4.05 11.83 7.1-3.18-0.03-6.3-0.53-9.38-1.22-1.52-0.64-3.03-1.25-4.52-1.88-0.02 0.8-0.06 2.39-0.09 3.18 1.86 0.94 3.87 1.53 5.97 1.48 1.25 0.35 2.5 0.72 3.77 1.1-0.12 1.73-1.4 4.06 0.66 5.13 2.98 2.15 7.06 0.78 10.5 1.15-1.15 1.36-2.29 2.72-3.39 4.11 1.06-0.2 2.15-0.4 3.25-0.6 1.02 0.22 2.06 0.44 3.11 0.66 0.34 0.71 0.7 1.42 1.08 2.13-1.52 1.19-3.05 2.39-4.36 3.8 1.38 1.19 3.06 1.89 4.73 2.61-0.91 1.91-1.77 3.84-2.72 5.74-0.84-0.44-1.66-0.86-2.45-1.28-2.3 2.51-5.91 0.21-8.3 2.5 0.1-1.23 0.22-2.45 0.36-3.66-0.74 0-2.22-0.01-2.96-0.01-0.13 0.94-0.38 2.81-0.51 3.75-0.95-0.84-1.89-1.66-2.73-2.57 0.67-1.18 1.48-2.28 2.27-3.39-0.23-0.27-0.69-0.81-0.92-1.08 0.35-1.36 0.71-2.72 1.07-4.07-1.63 0.45-3.23 0.94-4.83 1.44 0.18-0.86 0.52-2.57 0.69-3.42-1.04 0.39-2.07 0.79-3.09 1.2-0.29-0.34-0.89-1.02-1.18-1.35 0.83-0.85 1.67-1.69 2.52-2.53 0.53 0.04 1.59 0.1 2.12 0.14-1.19-3.4 2.76-4.9 4.33-7.29-2.34 0.37-4.63 0.86-6.92 1.34 0.04 0.76 0.13 2.29 0.17 3.05-3.4 0.83-6.87 0.4-10.26-0.18-1.42 1.85-3.1 3.48-5 4.81 0.25-1.86 0.57-3.7 0.9-5.55-1.36 1.13-2.68 2.28-3.97 3.46-1.42-0.41-2.86-0.81-4.24-1.19 1.47-1.99 3.36-3.59 5.76-4.38-0.81-1.91-1.66-3.79-2.52-5.67-2.4 0.82-4.76 1.76-6.97 2.98-0.86-0.25-2.57-0.74-3.42-0.99 1.59-1.89 3.26-3.71 4.92-5.55-0.33-0.35-1.01-1.06-1.34-1.42 3-3.5 5.86-7.15 9.24-10.31 2.87-2.96 6.82-5.51 7.23-10.01-2.48 1.48-4.64 3.39-6.7 5.38-1.36-0.25-2.72-0.48-4.05-0.7-1.78 1.74-3.66 3.39-5.67 4.84 0.28 0.23 0.85 0.69 1.14 0.92-0.84 1.12-1.67 2.24-2.48 3.36-1.55-0.02-3.08-0.03-4.6-0.03 1.34-1.97 2.87-3.87 3.85-6.07 0.15-1.5-0.88-2.8-1.36-4.14-1.42 0.72-2.73 1.64-4.04 2.49 1.02-5.02 3.02-9.79 3.81-14.87-1.22 0.38-2.41 0.82-3.55 1.33-0.92 2.01-1.26 4.21-1.88 6.31-0.88-1.3-1.74-2.6-2.64-3.86 0.07-2.65-0.89-4.88-3.5-5.81-1.32 3.25-2.81 6.41-4.19 9.63h-2.24c-0.53-2.24-0.28-7.31-3.91-5.45-1.07-1.19-2.19-2.34-3.3-3.46-0.1-0.85-0.18-1.7-0.24-2.54-1.69-1.99-3.34-4-4.9-6.07 0.39-1.48 0.83-2.94 1.11-4.45-1.68-0.39-3.4-0.17-5.07-0.1-0.02-0.37-0.05-1.11-0.06-1.48-1.66-0.43-3.52-0.46-4.85-1.65 0.19-2.08 0.68-4.12 1.04-6.18-1.72 0.8-3.42 1.63-5.13 2.42 0.22 0.73 0.65 2.2 0.86 2.94-1.79-1.77-1.96-4.26-2.21-6.61-0.54-0.26-1.61-0.78-2.15-1.05-3.9 0.1-7.39-1.54-10.51-3.71-0.04 2.08-0.04 4.16-0.05 6.25 0.93 0.11 2.81 0.32 3.75 0.43-1.91 0.67-4.39 2.92-5.46-0.11-2.04 0.83-4.09 1.62-6.15 2.35-0.04-0.79-0.13-2.37-0.17-3.17 0.51-0.42 1.53-1.28 2.04-1.71-0.96-3.42-0.67-6.95-0.06-10.39-2.13 1.61-4.11 3.38-6.09 5.15 0.48-1.45 0.97-2.89 1.46-4.35-1.49 0.03-2.97 0.06-4.44 0.08 0.86-1.34 1.73-2.69 2.59-4.04-1.57-0.04-3.13-0.08-4.68-0.11 0.45-1 0.9-2 1.37-2.99-0.81 0-2.45-0.01-3.26-0.01-0.03-1.36-0.03-2.72-0.02-4.07-0.54 0.06-1.62 0.17-2.16 0.23-1.34 1.34-2.76 2.61-4.34 3.64 0.57-2.91 3.14-4.23 5.56-5.37 0.06-0.46 0.17-1.38 0.23-1.84 0.82-1.24 1.63-2.5 2.44-3.76-1.71 0.2-3.4 0.42-5.08 0.67 0.21-1.74 0.42-3.48 0.61-5.22-3.57 2.61-6.59 6.13-10.95 7.47 1.5-2.75 3.53-5.13 5.46-7.59-2.25 0.57-4.47 1.24-6.76 1.53-1.3-1.21-2.43-2.58-3.75-3.75-1.11 0.65-2.12 1.41-3.13 2.15-0.03-2.31-0.11-4.62-0.24-6.92-4.66 2.59-2.69 9.59-7.82 11.66 0.17-0.61 0.52-1.83 0.69-2.44-0.66-3.45 0.1-6.92 0.3-10.36-2.69 2.56-3.07 6.41-4.62 9.62-1.09-1.13-2.19-2.25-3.29-3.36-0.11-1.24-0.19-2.47-0.26-3.71-1.48-1.76-3.02-3.51-4.03-5.58 0.96-1.61 2.91-2.01 4.48-2.81-0.39-1.13-0.79-2.25-1.15-3.37-1.06 0.63-2.1 1.27-3.13 1.9-2.31-0.85-4.67-1.57-7.06-2.1-0.85-1.62-1.68-3.24-2.5-4.86-1.15 0.45-2.3 0.89-3.43 1.34-0.18-2.94-0.62-5.87-1.26-8.74-1.29 0.91-2.55 1.85-3.79 2.81 0.04-0.76 0.11-2.29 0.15-3.06-0.68-0.02-2.04-0.08-2.71-0.1-0.42-0.5-1.25-1.5-1.67-1.99-1.19-0.02-2.37-0.03-3.53-0.04 0.54 2.65 0.92 5.33 1.24 8.03h4.59c0.02 0.56 0.07 1.68 0.09 2.24 2.25 0.86 3.06 2.9 3.41 5.12 0.74 1.41 1.47 2.84 2.17 4.3 0.46 0.71 0.94 1.42 1.43 2.14-0.49 1.41-0.97 2.82-1.41 4.24 1.33-0.05 2.67-0.1 4.03-0.15-1.94 4.4 1.93 7.84 3.95 11.35-1.16-0.44-2.3-0.88-3.43-1.31-0.04 1.51-0.05 3.03-0.2 4.54-3.87-2.32-7.09-5.53-10.77-8.09-0.07 0.79-0.21 2.37-0.28 3.16 1.42 1.48 2.86 2.94 4.32 4.4-1.04 0.11-3.11 0.34-4.14 0.46 1.43 1.29 2.99 2.43 4.57 3.57 0.11 0.6 0.35 1.8 0.47 2.4-3.72-0.41-7.23-1.7-10.52-3.42-1.14 0.8-2.27 1.62-3.37 2.46-1.02 1.14-2 2.31-2.93 3.51 2.19 0.61 4.42 1.19 6.57 2.03-1.57-0.17-3.06-0.38-4.58-0.61-0.85 0.53-1.68 1.06-2.5 1.6-2.26-0.79-4.52-1.55-6.78-2.27-0.02 0.76-0.06 2.29-0.08 3.06 3.1 0.8 6.59 0.95 9.22 2.99 1.79 1.31 3.52 2.7 5.27 4.08-0.44 0.54-1.31 1.62-1.75 2.16 0.41 0.59 1.23 1.78 1.64 2.37-1.82-0.44-3.61-0.93-5.4-1.41 0.01 0.68 0.03 2.04 0.04 2.71 3.41 0.65 6.79 1.63 9.82 3.39-3.97 0.19-7.97 0.05-11.86-0.75v2.86c5.35 0.65 10.52 3.43 15.98 2.36 2.08 0.67 4.18 1.34 6.3 1.99 1.19-0.22 2.38-0.44 3.6-0.65 0.07 1.8 0.14 3.61 0.23 5.42-2.52-0.54-5.25-1.67-7.56 0.13-1.21-0.4-2.4-0.8-3.58-1.21 0.07 1.14 0.15 2.28 0.24 3.42 1.96-0.1 4.08-0.52 5.8 0.8-1 0.2-3 0.59-4 0.79 0.03 0.45 0.09 1.35 0.11 1.8 3.58-0.04 7.16-0.14 10.74 0.09-4 1.31-8.21 2.54-11.35 5.5-2.63-1.06-5.31-2-7.99-2.88-0.52 1.53-1.01 3.07-1.53 4.6 0.31 0.38 0.94 1.14 1.25 1.51-1.05 0.42-2.09 0.84-3.12 1.26-0.75-0.27-2.25-0.82-2.99-1.1 2.4 3.49 7.01 3.98 9.93 6.89-1.87-0.34-3.7-0.75-5.52-1.21-2.02-1.39-4.43-1.41-6.74-1.06 0.49 1.28 0.98 2.57 1.49 3.85-3.78-1.28-7.58-2.63-11.62-2.69 0.41 1.03 0.82 2.07 1.25 3.11-1.89 2.23-3.84 4.41-5.88 6.5 1.14-7.08 2.82-14.1 2.96-21.3-3.88 3.44-4.49 8.99-7.75 12.9-0.11 0.81-0.2 1.64-0.27 2.47-1.58 1-3.13 2.04-4.66 3.07-0.27-2.86-0.1-5.74 0.56-8.54-3.8-2.48-2.95-7.73-6.01-10.8-0.68 1.5-1.27 3.02-1.88 4.53 0.45 1.33 0.9 2.66 1.35 4 0.69 0.77 1.39 1.54 2.11 2.32-0.65 0.99-1.28 1.99-1.89 3-1.08 0-2.15 0-3.2 0.01-1-3.32-2.04-6.62-2.72-10.01h-2.55c0.31-2.95 0.8-6.59-2.7-7.82-0.91 2.3-1.35 4.73-0.29 7.05-1.54-0.56-3.11-1.12-4.64-1.62 1.02 1.6 2.13 3.15 3.21 4.72 1.04 1.14 2.05 2.31 3.04 3.51-0.5 3.06-0.75 6.16-1.1 9.24-0.78-1.35-1.51-2.73-2.19-4.11-1.64 0.04-3.27 0.07-4.88 0.12 0.64 2.9 2.24 5.38 4.36 7.43 0.07 0.49 0.21 1.46 0.27 1.95 1.15 1.99 2.33 3.96 3.44 5.99-2.27-1.54-4.53-3.12-7.08-4.12 0.71 1.51 1.5 3 2.31 4.48-0.47 0.05-0.92 0.11-1.35 0.18 0.18 2.21-0.97 4.13-1.97 6-0.57-0.58-1.7-1.72-2.26-2.3-0.35-2.62-0.85-5.22-1.34-7.81-1.1 0.45-2.18 0.91-3.25 1.37 0.49-1.25 1.01-2.5 1.54-3.74-0.8 0.16-2.39 0.48-3.19 0.64-0.01-0.8-0.02-2.4-0.02-3.2-0.96 0.07-2.87 0.23-3.82 0.3 1.29-1.7 2.76-3.27 4.23-4.83-3.09-0.86-6.14-1.81-9.21-2.68-0.23-0.44-0.68-1.34-0.91-1.79 0.44-0.32 1.31-0.97 1.75-1.29v-2.37c-1.41-0.46-2.81-0.93-4.2-1.4 0.32-0.46 0.95-1.39 1.27-1.85-0.02-0.71-0.05-2.13-0.07-2.84-5.51-3.14-12.07-6.35-13.51-13.19-3.72-3.25-7.56-6.49-12.09-8.55-4.48-0.68-9.09-0.24-13.57-1.08 0.12 0.68 0.36 2.05 0.48 2.74-2.43 0.75-4.87 1.48-7.31 2.18v1.57c0.94 0.11 2.84 0.32 3.79 0.42-2.34 1.56-4.94 2.67-7.71 3.15-0.02-0.87-0.07-2.61-0.09-3.48-2.29 0.68-4.59 1.3-6.88 1.97-1.62-0.43-3.23-0.82-4.84-1.19-0.37-0.44-1.12-1.31-1.49-1.75h-3.73c-0.02-0.56-0.05-1.68-0.07-2.24-0.48 0.39-1.43 1.17-1.91 1.56-4.22-4.49-10.27-5.96-15.51-8.81 0.46 1.49 0.99 2.99 1.51 4.49-0.27 0.57-0.83 1.73-1.1 2.3 1.21 0.83 2.55 1.48 3.86 2.19 0.9 1.76 1.83 3.52 2.81 5.25-0.64-0.02-1.93-0.06-2.57-0.09 2.21 2.16 5.11 3.26 7.99 4.22-0.91 0.11-2.73 0.32-3.64 0.43 1.39 1.38 2.83 2.73 4.18 4.18-1.5-0.69-2.95-1.43-4.38-2.2-0.56-0.1-1.67-0.31-2.23-0.41 0.02 0.62 0.05 1.87 0.06 2.49 1.2 1.14 2.35 2.34 3.64 3.4 1.32-0.13 2.62-0.49 3.93-0.77 0.33 0.65 0.97 1.95 1.29 2.6-0.34 0.4-1.03 1.19-1.38 1.59 0.87 0.67 1.77 1.36 2.67 2.04 0.53-0.65 1.59-1.96 2.13-2.61-0.98 2.31-2.09 4.56-3.07 6.87-1.34-1.38-2.65-2.78-3.98-4.15 0.62 3.12 0.56 6.31-0.39 9.36-2.05-1.48-4.06-3.02-6.16-4.39 0.76 2.38 1.63 4.73 2.46 7.09-1.13-1.3-2.24-2.6-3.36-3.89-2.81-0.88-5.34-2.38-7.83-3.89 0.01 1.25 0.04 2.52 0.09 3.78 1.71 1.9 3.34 3.89 4.75 6.04-2.13 1.16-4.29 2.27-6.44 3.38 2.83 2.82 6.14 5.05 9.42 7.3-1.4-0.24-2.73-0.48-4.1-0.73-1.8 1.76-3.78 1.51-5.6-0.06-0.67 0.24-1.33 0.47-1.97 0.72-0.54-0.32-1.61-0.95-2.15-1.26v2.87c2.43 1.04 4.86 2.11 7.28 3.22-2.78-0.16-5.53-0.5-8.27-0.81 0 0.43-0.01 1.28-0.02 1.71 2.92 0.09 5.87 0.45 8.47 1.89-2.93 0.28-5.87 0.36-8.79 0.45 0.46 0.98 0.93 1.96 1.42 2.94-0.54-0.02-1.61-0.04-2.14-0.06l0.16 2.72c-2.13-0.39-4.29-0.69-6.42-0.98 0.32 1.78 0.67 3.55 1.07 5.32-0.33 0.2-0.99 0.6-1.33 0.79-1.42-0.29-2.84-0.56-4.26-0.7-0.04 0.63-0.11 1.9-0.15 2.53 2.2 1.39 4.68 2.26 7.03 3.39 0.81-0.95 1.64-1.89 2.51-2.79-0.26 2.94-0.44 5.89-0.52 8.85-0.26 0.46-0.79 1.39-1.05 1.85 0.03 1.22 0.06 2.45 0.11 3.69-1.69 0.48-3.37 0.98-5.03 1.49-0.09 1.88-0.19 3.75-0.3 5.63-2.66-5.23-3.2-11.84-8-15.74 0.8 7.19 5 13.5 5.55 20.76-2.25-3.07-4.37-6.23-6.63-9.28-1.93-1.11-3.79-2.35-5.33-3.96-2-1.75-4.05-3.45-6.24-4.95-1.31 3.78-5.17 1.74-7.96 1.68 3.82 3.58 7.89 6.91 11.37 10.85-1.8-0.41-3.59-0.84-5.37-1.23 1.29 1.58 2.72 3.05 4.17 4.51-0.69-0.16-2.06-0.47-2.75-0.62-3.1-1.57-6.3-2.92-9.54-4.11-0.02 0.72-0.04 2.17-0.05 2.9 6.56 2.9 13.48 5.33 19.23 9.75-5.07-1.06-9.88-3.62-15.18-3.3-2.23-0.6-2.7 1.94-3.67 3.33 2.98 0.84 5.94 1.8 8.83 2.95 1.47 0.97 2.99 1.8 4.55 2.66-2.59-0.04-5.18-0.01-7.75 0.06v1.8c3.27 0.01 6.56 0.34 9.63 1.57-1.55 0.46-3.04 0.94-4.56 1.41-1.42-0.34-2.83-0.65-4.22-0.93-2.95 3.32-7.57 4.03-10.81 6.93 1.78 0.1 3.56 0.18 5.37 0.24-0.18 1.29-0.35 2.59-0.5 3.89 1.39 0.04 2.79 0.08 4.21 0.14 0.42 0.4 1.25 1.21 1.66 1.62 3.41-0.26 6.78-1.13 10.23-0.86 6.7-0.03 12.39 4.05 18.77 5.51 0.39 0.39 1.16 1.17 1.55 1.57-1.65 2.56-3.31 5.12-5.1 7.58-0.37 2.79-1.28 5.56-1.07 8.39 1.38 4.42 3.94 8.56 7.83 11.19 4.39 3 7.87 7.05 10.94 11.35 0.03 0.64 0.1 1.92 0.13 2.56 1.97 0 3.94-0.01 5.93 0-0.02-1.65-0.04-3.3-0.04-4.94 2.79 2.15 5.17 4.76 7.64 7.27l0.51-1.28c2.25 1.18 4.54 2.26 6.85 3.33 0.01-0.69 0.03-2.07 0.03-2.75-0.83-0.68-2.48-2.02-3.31-2.69 2.42-0.09 4.29 1.38 6.01 2.9 0.58 0.06 1.73 0.18 2.31 0.23-0.01-2.1-0.02-4.2-0.01-6.29-0.93 0.27-1.85 0.55-2.76 0.84-2.24-1.44-4.74-2.73-6.02-5.19 1.47 0.77 2.93 1.64 4.34 2.55 2.59 0.61 5.44 0.79 7.48 2.73 0.39 0.11 1.17 0.32 1.56 0.43 1.63 2.25 3.47 4.33 5.46 6.28 1.06-1.52 2.15-3.02 3.27-4.5-1.04-1.61-2.14-3.19-3.23-4.75 0.39-1.83 0.71-3.67 1.07-5.5 1.27 1.17 2.55 2.35 3.84 3.54 0 0.62 0.02 1.87 0.03 2.49 0.5 0.41 1.52 1.24 2.02 1.66 0.4-0.39 1.2-1.16 1.59-1.55 0.42 0.55 1.25 1.65 1.67 2.2 1.17-0.01 2.36-0.02 3.55-0.02 0.47 1.33 0.94 2.67 1.42 4.01h2.41c3.79 3.98 5.23 9.25 7.78 13.96 0.29-1.85 0.57-3.7 0.84-5.54 1.13 1.46 2.24 2.95 3.33 4.46 1.38 0.48 2.78 0.94 4.2 1.39 2.77 2.47 4.9 5.52 6.39 8.92 0.39-0.36 1.18-1.09 1.58-1.46 2.06 2.92 3.78 6.05 5.35 9.26 0.69 0.01 2.07 0.04 2.75 0.05 0.03 0.69 0.09 2.08 0.12 2.77 0.86 0.58 1.74 1.16 2.63 1.75 2.35 3.89 4.36 8.11 7.79 11.21 0.2-0.8 0.58-2.4 0.77-3.2 0.66 1.21 1.32 2.43 2 3.65-0.68 0.7-1.36 1.4-2.02 2.1-0.03 1.39-0.06 2.79-0.08 4.2 1.68 1.35 3.32 2.77 4.78 4.4 1.24 0.02 2.51 0.05 3.79 0.09 0.52 4.02 1.74 7.91 2.59 11.88 1.82 1.57 3.79 2.97 5.52 4.65-0.11 2.5-0.72 4.95-1 7.44 1.72 0.01 3.45 0.01 5.2 0.03 0-0.55-0.01-1.65-0.01-2.2 1.32 0.78 2.66 1.56 4 2.36 0.02 1.05 0.05 2.11 0.1 3.18 2.44 2.3 4.01 5.29 4.38 8.65 1.09-0.01 2.2-0.02 3.33-0.02 1.27 4.16 2.29 8.81 5.87 11.69 2.53 4.49 4.87 9.28 4.62 14.6 1.21 2 2.28 4.08 3.24 6.23-0.59 0.44-1.78 1.32-2.38 1.75-0.52 2.32-1.04 4.63-1.48 6.97-1.55-0.48-3.08-0.95-4.61-1.42-0.06 1.54-0.11 3.09-0.16 4.65-1.65-0.82-3.3-1.62-4.91-2.48-0.05-1.57-0.1-3.12-0.12-4.68-0.75-0.72-1.48-1.43-2.19-2.14-3.41-0.8-6.9-0.75-10.32-0.11-0.04 3.19-1.55 5.87-3.85 7.97-0.67 0.01-2 0.03-2.66 0.04 0.3 1.82 0.67 3.65 0.88 5.5-1.2 0.72-2.47 1.32-3.7 1.95-0.94 3.03-1.71 6.12-2.29 9.24-0.41 0.4-1.23 1.21-1.64 1.61-0.13 1.45-0.26 2.91-0.39 4.38-1.78-2.72-3.22-5.65-4.23-8.73h-2.5c0.02 1.31 0.05 2.63 0.09 3.97-1.05-0.38-2.08-0.74-3.1-1.09-1.08 2.91-3.74 1.34-5.84 1.02-0.6 2.89-1.09 5.81-1.32 8.76-0.79 0.39-1.56 0.8-2.31 1.22-2.81-2.78-5.29-5.86-7.8-8.9-0.69-0.01-2.09-0.03-2.79-0.04-0.74 2.55-0.56 5.16 0.12 7.7 0.79 0.77 1.58 1.55 2.39 2.33-0.93 0.03-2.77 0.07-3.69 0.09 0.35 1.85 0.74 3.7 1.18 5.55-1.92-2.75-4.14-5.25-6.53-7.58-0.6-0.01-1.8-0.04-2.41-0.05 0.03 1.26 0.07 2.53 0.12 3.81-1.7-0.4-3.41-0.76-5.1-1.08 0.01 0.68 0.04 2.04 0.05 2.73 0.66 0.8 1.37 1.64 2.05 2.48-1.06 1.27-1.95 2.65-2.81 4.06-2.92-0.91-6.01-1.13-8.92-0.09-0.71 3.5-4.56 8.28-0.48 11.01 0.04 0.46 0.1 1.39 0.13 1.85 2.95 2.93 6.56 5 9.8 7.56-1.51-0.55-2.95-1.15-4.38-1.8-5.85-2.2-10.98-6.53-17.42-6.83 0 0.67 0.01 2.02 0.01 2.69 2.39 1.49 4.7 3.14 6.8 5.04-0.71 0.19-2.11 0.58-2.81 0.78v2.39c-1.72 0.4-3.55 0.55-5.01 1.62 0.18 1.89 0.69 3.73 1.09 5.59 3.93 1.01 7.86 2.02 11.9 2.5l0.1 0.86c-6.94-0.06-14-2.5-20.74 0.24 0.78 1.17 0.98 3.23 2.74 3.36 6.15 1.13 12.21 2.76 18.43 3.57-1.07 0.48-2.12 0.97-3.15 1.48-3.5-0.88-7.12-0.88-10.68-0.86 0.39 2.04 0.88 4.07 1.38 6.1 0.73-0.02 2.2-0.05 2.94-0.07l0.03 0.66c-4.94 1.27-9.87 2.79-15.03 2.49v2.62c2.76 0.33 5.5 0.85 8.22 1.47 1.16 2.55 3.63 1.27 5.65 0.86 0.2 2.37-0.34 5.22 1.92 6.83 0.09 0.35 0.26 1.06 0.34 1.41 1.06 1.05 2.11 2.14 3.16 3.23-3.02 0.96-5.99 2.09-8.97 3.14 1.4 1.98 3.13 3.72 4.45 5.78 0.12 1.74-0.52 3.42-0.81 5.12 3.65 0.27 6.87 2.01 8.48 5.4 1.17 0 2.36 0.01 3.56 0.03l0.01 0.99c-0.72-0.01-2.18-0.01-2.91-0.01-0.58 2.83-1.06 5.69-1.33 8.59 1.52 0.46 3.05 0.95 4.59 1.46-0.42 0.48-1.25 1.45-1.67 1.93-0.79 0.03-2.36 0.11-3.15 0.15 0.52 2.64 1.51 5.17 3 7.42 0.49 1.17 0.99 2.36 1.52 3.55-0.48-0.04-1.42-0.11-1.9-0.14-0.11 0.66-0.35 1.98-0.47 2.64-2.79-4.49-5.47-9.05-8.17-13.59-1.28 0-2.55 0.01-3.8 0.03 0.83 3.07 2.21 6.16 1.72 9.42-0.56 2.88 1.71 5.12 2.96 7.49-1.44 0.01-2.87 0.03-4.29 0.06-0.34 1.83-0.98 3.65-0.93 5.54 1.68 3.32 4.87 5.59 6.5 8.98-3.49-2.69-6.57-5.86-10.13-8.46-0.62-0.02-1.85-0.07-2.46-0.09-0.07 0.52-0.19 1.58-0.25 2.11-1.73 1.3-1.85 3.4-2.1 5.36 1.34 1.23 2.68 2.5 4.01 3.77 0.46 1.66 0.96 3.32 1.47 4.99-3.88-1.9-7.89-5.4-12.4-3.21 0.26 1.78 0.68 3.55 0.83 5.36-1.1 1.23-2.35 2.31-3.58 3.39-0.02 0.65-0.07 1.96-0.09 2.61-1.9-2.05-3.78-4.11-5.46-6.34-0.69 0-2.07-0.01-2.76-0.02 0.11 3.04 0.6 6.06 1.96 8.82-1.91 1.95-3.73 3.97-5.64 5.91 0.01 0.26 0.03 0.79 0.05 1.06-1.72-0.38-3.45-0.71-5.16-1l0.03-0.31c0.92-0.59 1.85-1.19 2.78-1.78 0.9-1.53 1.75-3.09 2.57-4.67-1.11-1.06-2.19-2.13-3.25-3.21-2.86 0.62-5.69 1.34-8.48 2.18 2.54-2.94 5.02-5.93 7.56-8.87 1.46-1.66 3.1-4.84-0.07-5.73 2.12-1.8 4.02-3.84 5.91-5.87 0-0.59-0.01-1.79-0.01-2.38-0.64-0.1-1.92-0.29-2.56-0.38 1.8-1.44 3.66-2.81 5.55-4.15-0.01-1.21-0.01-2.41 0-3.61-0.66 0-1.98-0.01-2.64-0.01-0.61 0.7-1.2 1.41-1.78 2.14-0.67-0.94-1.34-1.87-2-2.78-0.63-1.17-1.24-2.34-1.97-3.4-3.7-0.12-6.1 3.19-8.65 5.36 0.02-0.68 0.06-2.05 0.08-2.73 3.82-3.42 6.15-8.09 7.48-12.98-2.34 0.23-4.65 0.74-6.18 2.66-2.01 2.87-4.02 5.74-6.23 8.46 0.38-1.7 0.79-3.38 1.18-5.06-2.19 0.35-4.36 0.71-6.5 1.22 2.08-2.83 3.86-5.87 6.14-8.56 0.02-1.77 0.06-3.54 0.1-5.29-0.71-0.03-2.12-0.08-2.82-0.11-2.04 2.72-3.89 5.57-5.6 8.5-3.05 0.7-4.29 3.47-5.04 6.21-3.72 4.79-7.29 9.73-11.62 14 1.75-5.57 3.79-11.06 6.41-16.28 1.21-2.25 1.64-4.78 1.97-7.28-0.8-0.03-2.4-0.1-3.2-0.14-1.96 3.78-3.79 7.65-6.22 11.15-0.65-0.02-1.93-0.08-2.58-0.11-1.05 3.25-2.18 6.7-5.27 8.59-0.04 1-0.06 2.02-0.08 3.04-0.42 0.41-1.28 1.23-1.7 1.64-0.41 1.94-0.89 3.86-1.36 5.8-0.66-0.01-1.98-0.02-2.64-0.02-1.66-2.17-3.28-4.37-4.99-6.48-0.57-3.83-1.75-7.52-2.57-11.29-0.44-0.41-1.32-1.25-1.75-1.67 0.03-0.42 0.1-1.28 0.14-1.7 2.53-1.17 1.63-3.73 1.34-5.84 1.18-0.45 2.37-0.88 3.57-1.3-0.02-2.03-0.05-4.06-0.06-6.07-1.43 0.41-2.84 0.84-4.23 1.29 0.49-1.97 1.01-3.93 1.52-5.89-1.95-0.07-3.88-0.13-5.81-0.2 0.8-1.18 1.63-2.35 2.48-3.5 0.03-0.5 0.09-1.5 0.12-2-1.08-0.95-2.16-1.89-3.22-2.82 0.63-4.98 1.41-9.96 1.23-15-1.3 0.48-2.57 0.99-3.84 1.53 1.25-3.33 0.21-6.79-0.42-10.11-0.54 0.02-1.61 0.05-2.14 0.06-1.71 2.35-3.59 4.56-5.29 6.92-0.57 0.03-1.71 0.1-2.28 0.13-0.51-2.02-1-4.05-1.4-6.08-0.63-0.01-1.88-0.02-2.5-0.03-0.52 1.67-1.03 3.34-1.51 5.03-1.17 0-2.32 0-3.47 0.02-0.82-1.36-1.62-2.71-2.41-4.06-0.6 0.01-1.79 0.03-2.38 0.04-0.51 1.01-1.02 2.02-1.52 3.04-1.18-0.03-2.35-0.04-3.51-0.04-0.93-1.01-1.85-2.01-2.76-3-1.11-0.01-2.21-0.01-3.3 0-0.45-2.2-0.97-4.38-1.5-6.55-0.3-0.61-0.9-1.84-1.2-2.45-0.57 0-1.71-0.01-2.28-0.01-0.95-1.05-1.88-2.09-2.81-3.12-0.99 0.15-1.96 0.31-2.92 0.47-2.96-0.44-5.92 0.04-8.74 0.93-1.4 1.2-3.14 1.74-4.87 2.24-0.02 0.97-0.04 1.94-0.04 2.92-1.46 1.68-2.74 3.54-4.34 5.1-2.83-0.49-5.59-0.41-7.68 1.84 0.05 2.62 0.08 5.24 0.16 7.87 3.24 4.47 5.3 9.72 6.3 15.13 1.15 1.98 2.21 4.02 3.16 6.12-1.75-1.78-3.48-3.57-5.15-5.41-1.69-0.41-3.35-0.91-5.07-1.07-0.73 1.05-1.32 2.18-1.91 3.32 0.6 0.44 1.81 1.32 2.41 1.77-0.41 1.29-0.81 2.58-1.17 3.9-0.59 0.01-1.76 0.02-2.34 0.02-0.47-0.61-1.41-1.84-1.88-2.45-1.51 0.43-3.1 0.72-4.41 1.62 0.23 2.71 0.68 5.45 1.62 8.02 1.22 0.53 2.48 1.01 3.77 1.45-0.94 0.21-1.85 0.46-2.77 0.7-1.52-0.07-3.03 0.06-4.48 0.5-0.92 1.49-1.85 2.98-2.73 4.5 2.69 1.06 5.61 1.95 7.44 4.37-3.29 0.26-6.58 0.29-9.86 0.29-0.04 1.69-0.07 3.38-0.1 5.09 3.78 1.8 7.93 2.48 12.04 3.11 0.02 0.45 0.08 1.34 0.11 1.79 0.74 0 2.21-0.02 2.95-0.02l-0.02 0.92c-4.86 1.02-9.85 1.18-14.67 2.41 0.75 1.15 1.53 2.29 2.35 3.43l0.34 0.02c-1.83 0.34-3.65 0.73-5.45 1.18-0.66-0.61-1.31-1.21-1.94-1.8-7.29-1.78-14.87-1.46-22.17 0.06-3.67 4.43-9.48 5.52-14.12 8.5-4.4 1.42-8.89 0.89-13.37 0.43-8.5 1.28-17.19 1.33-25.65-0.32-0.41-0.38-1.22-1.14-1.63-1.51-3.27-0.41-6.36-1.49-9.44-2.56-0.41-0.43-1.22-1.27-1.62-1.7-0.98-0.07-1.95-0.14-2.91-0.2-1.55-0.92-2.97-2.38-4.8-2.6-3.38 0.29-6.72 0.88-10.05 1.48-2.78-1.31-5.82-2.21-8.92-1.76-2.26-0.11-3.09 2.42-4.47 3.75-3.85 3.92-9.49 3.53-14.51 3.18-1.28-1.13-2.81-1.85-4.39-2.41-0.47 0.63-1.42 1.9-1.89 2.54-2.29-0.03-4.58-0.05-6.85-0.09-0.49-0.44-1.47-1.33-1.96-1.78-6.94 1.75-14.1 2.15-21.12 3.46-0.42-0.36-1.27-1.1-1.69-1.46-0.42-0.06-1.28-0.17-1.71-0.23-0.85 1.01-1.69 2.04-2.53 3.06-1.91-0.45-3.83-0.9-5.74-1.28-0.06 0.95-0.18 2.84-0.24 3.79-3.03-0.66-5.71-2.22-8.57-3.29-2.26 0.39-4.37 1.29-6.49 2.11-1.94 2.36-5.15 1.58-7.8 1.73-7.35-0.16-14.69 0.07-22.04-0.06-3.13 0.04-5.85-1.86-8.95-1.95-5.04-0.36-10.23 0.67-15.12-0.93-5.86-1.91-12.1-0.97-18.14-1.01-2.99 3.13-7.36 3.49-11.37 2.5-4.87-0.58-9.46-3.23-14.45-2.54-3.57 1.14-6.47 3.67-9.52 5.76-0.52 0.09-1.56 0.26-2.08 0.34-1.37 1.23-2.74 2.45-4.05 3.74-0.49 0.03-1.46 0.1-1.95 0.13-0.41 0.49-1.24 1.47-1.65 1.97h-2.36c-0.4 0.49-1.22 1.48-1.62 1.97-0.59 0.03-1.77 0.09-2.35 0.12-0.4 0.39-1.21 1.17-1.61 1.57-3.08 0.55-6.01 1.64-8.9 2.82-1.56 1.29-3.58 1.53-5.5 1.85-0.41 0.35-1.22 1.06-1.62 1.41-3.56 1.05-7.11 2.11-10.69 3.09-3.62-1.04-7.3-1.8-10.96-2.66-2.29 0.81-4.55 2.14-7.06 1.95-4.59-0.41-8.75-2.57-13.14-3.73-2.58 1.09-5.23 2.01-8.08 1.74-1.93-1.79-4.04-3.34-6.17-4.86-3.3-0.93-6.46-2.32-9.83-2.99-2.03 0.04-3.91 0.96-5.83 1.54-2.75-1.52-5.84-2.16-8.91-1.3-3.2-2.6-7.25-3.06-11.11-1.84-1.95-1.29-3.8-2.8-6-3.62-3.95 0.3-7.45 3.16-11.48 2.49-4.27-0.67-8.5 0.61-12.77 0.53-2.63-2.05-5.4-3.88-8.11-5.79-2.2-0.75-4.32-1.75-6.6-2.18-2.68-0.28-5.27 0.67-7.93 0.77-1.8-0.52-3.28-1.74-4.82-2.73-2.14-0.1-4.28-0.17-6.42-0.23-0.27 0.52-0.79 1.56-1.06 2.08-3.92 0-7.85 0.16-11.77-0.08-4.5-0.29-8.88-2.48-13.42-1.33-5.87 1.18-11.73-0.46-17.6-0.69-4.6-0.31-8.83-2.92-13.51-2.39-3.72 0.19-7.48-0.81-10.43-3.12l-1.36-0.6c-1.33-1.23-2.66-2.45-4.01-3.64-0.49-0.07-1.46-0.21-1.95-0.29-3.52-3.52-7.09-7.14-9.19-11.73-2.1-0.9-4.21-1.75-6.38-2.47-1.73-1.92-3.42-3.9-5.02-5.93-7.17 1.64-14.63 4.51-22.01 2.26-7.56-1.23-15.37-4.08-22.98-1.65-0.53 0.4-1.58 1.2-2.11 1.6-2.05 0.01-4.09-0.02-6.14-0.09-2.88-2.16-6.81-1.29-9.7-3.36-2.98-1.37-6.04-2.59-8.91-4.21-1.16-0.21-2.32-0.4-3.48-0.59-4.36-1.92-9.12-2.8-13.33-5.1-3.98-1.31-7.89-2.86-11.87-4.18-4.46-1.18-9.02 0.3-13.51 0.29-9.58-0.96-19.11 2.93-28.65 0.82-4.26-1.08-8.54-3.19-13.01-2.1-5.95 1.25-12.08-0.1-18.01 1.04-9.31 2.56-18.62 5.85-28.4 5.81v393.73h2200v-355.83c-8.05-0.6-16.15-1.08-24-2.98zm-571.1-302.12c2.93-1.6 0.18 3.31 0 0zm-2.85-21.67c1.37-0.41 1.89 0.08 1.55 1.47-1.43 0.42-1.94-0.07-1.55-1.47zm-1.79 30.7c3.01-1.54 0.16 3.28 0 0zm-10.61 25.79c-1.23 0.58-2.84-0.27-3.51-1.3 0.37-1.62 3.84-0.11 3.51 1.3zm-19.55-74.02c3.31 0.22-1.62 2.91 0 0zm-23 1.4c3.27 0.17-1.54 3.03 0 0zm-2.01 2.99c3.27 0.2-1.57 3.01 0 0zm-11.81 27.34c1.27-0.96 2.9 1.19 1.69 2.2-1.28 0.94-2.97-1.23-1.69-2.2zm-6.46 76.26c0.98 1.44 1.93 2.92 2.74 4.51-2.24-1.03-4.23-2.44-5.95-4.16 0.8-0.09 2.41-0.27 3.21-0.35zm-8.81-63.36c-0.39 0.14-1.16 0.43-1.54 0.57-1.48-1.53-2.96-3.04-4.45-4.53 0.36-0.45 1.06-1.35 1.41-1.8 1.7 1.77 3.23 3.69 4.58 5.76zm-85.38-106.51c3.05-1.3-0.13 3.33 0 0zm-130.36-20.85c2.99-1.57 0.2 3.29 0 0zm-183.7-74.9c1.12-0.56 2.78 0.04 3.4 1.14-0.32 1.75-3.78 0.27-3.4-1.14zm-0.29 7.95c1.31-0.67 4.26 0.1 4.38 1.65-1.36 0.75-4.63 0.26-4.38-1.65zm-155.39 14.46c-1.39 0.36-1.91-0.15-1.54-1.53 1.39-0.39 1.9 0.12 1.54 1.53zm-10.12 160.19c-1.41 0.25-1.93-0.3-1.58-1.66 1.38-0.26 1.91 0.29 1.58 1.66zm6.84-8.94c-1.41 0.38-1.93-0.13-1.54-1.53 1.37-0.37 1.89 0.14 1.54 1.53zm21.76-150.63c0.74-0.76 3.27-0.95 3.25 0.48-0.78 0.75-3.29 0.96-3.25-0.48zm39.91 11.83c3.03-1.51 0.14 3.29 0 0zm-3.14 6.18c3.28 0.25-1.59 2.99 0 0zm4.6 10.57c-0.98-3-2.62-5.69-4.11-8.45 1.49 1.38 2.89 2.88 4.4 4.25-0.1 1.4-0.18 2.8-0.29 4.2zm10.34-10.13c1.36-0.55 1.91-0.12 1.66 1.27-1.4 0.55-1.95 0.12-1.66-1.27zm-4.39 1.25c-1.46 0.39-3.58-1.39-3.38-2.87 1.46-0.45 3.57 1.37 3.38 2.87zm-2.3 3.07c-0.6-0.02-1.8-0.05-2.4-0.07l0.03-1.17c1.65 0.3 3.8-0.21 4.81 1.52 0.06 0.84 0.19 2.51 0.25 3.35-0.95-1.18-1.86-2.39-2.69-3.63zm3-11.34c0.77-0.94 3.02-0.1 2.46 1.22-0.81 1.03-2.96 0.06-2.46-1.22zm2.86 20.08c-0.45-1.23-0.87-2.44-1.31-3.65 1.86-1.41 3.88-2.59 5.99-3.6-0.7 2.87-1.02 5.8-1.09 8.75-1.21-0.5-2.41-1.01-3.59-1.5zm9.99 119.32c2.98-1.61 0.27 3.28 0 0zm9.51 3.13c-1.1 0.52-2.23 0.78-3.41 0.8-1.28-1.08-1.38-2.76-1.68-4.26 0.82 0.36 2.46 1.1 3.28 1.47-0.03-0.74-0.09-2.2-0.12-2.93 1.62 1.51 3.13 3.15 4.62 4.8-0.67 0.03-2.02 0.09-2.69 0.12zm7.7-103.85c-1.1 1.12-3.16-0.69-2.28-1.92 1.03-0.79 3.3 0.68 2.28 1.92zm-0.76-5.1c-1.26-0.89-0.83-2.57-0.9-3.83 2.35 0.87 4.64 2.17 5.86 4.47-1.61-0.08-3.77 0.99-4.96-0.64zm-62.68 350.87c-1.34 0.25-2.27-0.03-2.79-0.82 1.49-0.8 3.35-0.48 4.99-0.3 1.86 0.9-1.65 1.3-2.2 1.12zm15.84-33.43c-1.15 0.36-2.05 0-2.69-1.07 0.09-1.83 3.33-0.33 2.69 1.07zm259.05-290.19c0.66 1.36-1.32 3.38-2.69 3.02-0.55-1.39 1.2-3.53 2.69-3.02zm-3.74 6.64c1.61-0.53 2.17 0.02 1.67 1.66-1.64 0.52-2.19-0.03-1.67-1.66zm-2.92 28.99c1.17-0.5 2.56 1.38 1.76 2.39-1.22 0.53-2.5-1.41-1.76-2.39zm-10.74-4.04c1.56-0.55 2.11 0.01 1.66 1.69-1.58 0.54-2.13-0.03-1.66-1.69zm-3.29-55.94c1.62-0.52 2.16 0.04 1.63 1.67-1.66 0.5-2.2-0.06-1.63-1.67zm-0.95 52.92c3.02-1.55 0.17 3.28 0 0zm-10.02 0.93c1.59-0.67 2.17-0.19 1.75 1.46-1.63 0.66-2.22 0.18-1.75-1.46zm-6.15 1.65c3.31 0.24-1.64 2.9 0 0zm-2.84-2.3c0.71-1.05 2.49-1.81 3.64-0.97 0.81 1.85-3.29 2.62-3.64 0.97zm-8.29-39.04c-0.54 1.4-2.73 1.2-3.76 0.54-0.81-1.82 3.26-2.07 3.76-0.54zm-8.64-46.49c1.39-0.76 0.48-3.04 0.99-4.33 0.86 0.36 2.79 0.6 2.31 1.99-1.08 2.81-1.53 5.7-1.57 8.7-2.87-0.64-5.76-1.27-8.71-1.31 1.19 2.05 3.48 2.93 5.27 4.34-1.57-0.43-3.06-0.98-4.57-1.51-0.04 0.67-0.13 2-0.18 2.66-1.5-0.73-2.98-1.48-4.43-2.26-1.31-0.09-2.6-0.17-3.87-0.25l-2.56-1.24v-1.44c-1.53-0.5-3.05-1.01-4.55-1.48 0.18-0.67 0.53-2.01 0.71-2.69-1.72-0.02-3.43-0.03-5.13-0.04-0.02-0.58-0.08-1.74-0.1-2.32-1.47-0.96-2.43-2.43-3.38-3.84 4.28 1.3 8.88-0.3 12.86 2.03 0.28-0.42 0.85-1.26 1.14-1.68 4.03 0.81 7.96 2.1 11.96 3.12 1.26 0.52 2.48 1.13 3.81 1.55zm-9.89 18.26c-0.72 3.51-4.82 0.37-7.17 0.66-0.54-1.29-1.08-2.57-1.58-3.85 3.85-0.19 7.85 0.29 10.98 2.76-0.56 0.11-1.67 0.32-2.23 0.43zm-9.5-3.49c-1.39 0.38-1.91-0.13-1.54-1.51 1.39-0.4 1.9 0.1 1.54 1.51zm-3.46-37.45c1.38-0.34 2.74-0.69 4.15-1.01-1.61 3.59-6.15 2.96-9.33 3.9 1.67-1.06 3.43-1.96 5.18-2.89zm0.01 10.64c0.78-3.11 3.97-2.85 6.52-2.98v-2.83c-1.69 0-3.36 0.01-5.01 0.02l0.01-0.73c2.39-0.02 6.63-1.33 4.07-4.31 1.81-0.49 3.75-1.32 5.59-0.3 0.7 0.1 2.1 0.31 2.8 0.41l0.01 0.91h-3.22c-0.54 1.44-1.05 2.89-1.55 4.35 1.34-0.36 2.67-0.76 4-1.2 1.27-0.08 2.56-0.14 3.86-0.19-1.24 0.89-2.49 1.75-3.74 2.6 1.18 0.57 2.4 1.17 3.6 1.78-0.6 0.46-1.8 1.39-2.4 1.85 0.9 1.22 1.8 2.44 2.61 3.74 0.34 0.04 1.01 0.11 1.35 0.15 0.02 0.51 0.08 1.54 0.1 2.05-2.07-0.72-4.23-0.77-6.38-0.67-3.83-0.24-7.67-0.48-11.5-0.51-0.37-0.31-1.12-0.91-1.49-1.21-2.58 0.02-5.71 1.19-7.62-1.15 2.64-1.18 5.44-2.17 8.39-1.78zm-12.12 28.31c0.96-0.81 2.9 0.54 2.25 1.72-1 0.81-2.93-0.56-2.25-1.72zm-3.59-60.01c1.38-0.36 1.81 0.16 1.3 1.56-1.41 0.35-1.84-0.17-1.3-1.56zm0.52 67.89c-0.39-0.51-1.18-1.53-1.57-2.04 1.89 0.06 3.8 0.12 5.72 0.19 0.73 0.29 2.2 0.87 2.93 1.16-0.47-1.14-0.94-2.26-1.4-3.38 1.64 0 3.3 0.02 4.98 0.03 0.02-0.68 0.05-2.05 0.07-2.73-2.04-0.16-4.3-0.11-5.05-2.45 1.3 0.31 2.6 0.66 3.9 1.04 0.37-0.46 1.09-1.38 1.45-1.83h2.3c1.75 1.16 3.45 2.44 4.79 4.09-1.84 0.17-3.67 0.07-5.48 0.03 0.05 0.64 0.15 1.91 0.2 2.55 2.58 1.28 5.43 1.88 8.05 3.06 0.76 1.27 1 2.89 2.09 3.96 2.57 0.46 5.18 0.8 7.74 1.42l0.01 1.04c-2.88-0.05-5.73-0.37-8.5-1.15 0.59 1.03 1.21 2.05 1.85 3.07-6.07-0.01-12.54 0.24-18.03-2.79 0.92-0.1 2.75-0.29 3.66-0.39v-2.94c-5.27 0.13-10.51 1.07-15.73-0.07-0.4-0.47-1.18-1.4-1.58-1.87 2.53-0.01 5.06 0 7.6 0zm29.85 11.76c-3.48 0.05-7.54 1.31-10.43-1.24 3.54-0.88 7.16-0.35 10.43 1.24zm-41.77-17.64c1.39-0.4 1.9 0.1 1.51 1.51-1.41 0.38-1.91-0.13-1.51-1.51zm-2.09-74.04c3.03-1.52 0.13 3.29 0 0zm-50.31 55.66c0.91 0.07 2.72 0.22 3.62 0.3 3.12 2.12 6.05 4.48 8.93 6.91 1.02 0.02 2.06 0.03 3.12 0.04 2.23 1.45 4.23 3.22 5.89 5.31-1.9-0.58-3.73-1.29-5.56-2 0.03 0.62 0.08 1.85 0.11 2.47-1.09-0.35-2.17-0.69-3.23-1.02 0.46-0.84 0.93-1.68 1.41-2.51-5.46-2.12-9.58-6.21-14.29-9.5zm5.12 59.05c-0.03 0.48-0.09 1.45-0.11 1.93-1.36 0.4-2.68 0.82-4 1.26-2.16-0.93-4.38-1.71-6.56-2.55 2.56-1.06 5.27-1.75 8.07-1.68 1.43-2.85 4.01-4.8 6.79-6.23-0.35 1.46-0.67 2.93-1.07 4.38 0.29 0.23 0.86 0.69 1.15 0.92 1.31-1.68 2.19 0.42 3.22 0.93-0.63 0.08-1.9 0.25-2.53 0.33-0.04 0.53-0.1 1.61-0.14 2.15-1.62-0.48-3.22-0.97-4.82-1.44zm1.58 15.15c-0.75 0.88-3.24 0.39-2.57-0.99 0.7-0.88 3.19-0.4 2.57 0.99zm-19.1-1.89c1.01-1.1 2.61 0.75 1.71 1.77-1.02 1.11-2.61-0.78-1.71-1.77zm1.65-7.5c-0.94-0.84-1.86-1.68-2.76-2.52-1.83-0.02-3.65-0.04-5.46-0.05 0-0.52-0.01-1.58-0.02-2.11 2.69 0.07 5.37 0.4 8.03 0.87 0-0.36-0.01-1.07-0.02-1.43 1.21-0.36 2.44-0.72 3.67-1.11 1 1.74 2.1 3.42 3.19 5.11-0.8-0.11-2.42-0.33-3.23-0.44-1.16-0.81-2.35-1.54-3.61-2.13 0.05 0.95 0.15 2.86 0.21 3.81zm8.35 9.73c-2.11-0.12-3.97-0.96-5.6-2.22 2.12 0.09 5.07-0.72 5.6 2.22zm4.24 6.74c-2.17 0.02-4.32-0.03-6.45-0.13 0.95-3.48 4.3-0.68 6.45 0.13zm8.76-64.21c-1.06 0.74-3.92 0.45-3.58-1.23 1.01-0.6 3.56-0.12 3.58 1.23zm-4.96-0.47c-2.4-0.53-4.36-2.04-6.17-3.6 2.4 0.41 4.92 1.31 6.17 3.6zm-11.54-10.09c3.29 0.27-1.63 2.97 0 0zm-0.48 11.85c2.89-1.63 0.23 3.33 0 0zm-10.48-5.12c3.32 0.16-1.57 2.94 0 0zm0.23 26.25c-0.58-0.09-1.75-0.26-2.34-0.34l-0.1-0.92c2.68-0.15 5.38-0.3 8.09-0.37-0.01-1.23 0-2.46 0.02-3.69-0.6 0.07-1.79 0.21-2.38 0.28-1.5 0.87-3.04 1.62-4.61 2.32 0.77-2.32 0.71-5.12 2.67-6.85 1.82-1.94 4.62-2.32 6.95-3.38-1.19-0.74-2.41-1.46-3.58-2.17 1.01-0.69 2.03-1.37 3.08-2.03 0.98 0.33 1.98 0.65 3 0.98 1.08-0.49 2.18-0.96 3.31-1.4 0.43 0.52 1.29 1.56 1.72 2.08-1.5 0.54-3 1.07-4.48 1.63 0.47 0.8 0.96 1.6 1.47 2.41 1.56-0.44 3.15-0.77 4.76-1.07 0.03 0.57 0.09 1.72 0.12 2.29h3.57c0.78 0.85 1.56 1.7 2.37 2.55-0.5 0.16-1.49 0.47-1.98 0.62-0.02 1.13-0.02 2.26 0 3.4 1.66 0.32 3.25 0.84 3.83 2.65-1.66-0.37-3.24-0.79-4.85-1.24-0.01 1.2 0 2.42 0.02 3.63 1.84 0.86 3.66 1.79 5.49 2.72 0.92 0.87 1.88 1.72 2.87 2.56-1.03 2.14-3.23 2.25-5.32 2.3-0.02 0.33-0.07 1-0.09 1.34-1.84 1.08-3.61 2.26-5.4 3.4-0.53 0.04-1.58 0.11-2.11 0.15-0.98 0.62-1.95 1.24-2.91 1.87-3.06-0.01-6.14-0.04-9.13 0.63-1.38-0.28-2.8-0.56-4.14-0.8 0.19-0.4 0.58-1.2 0.77-1.6-1.02-0.46-2.03-0.92-3.03-1.38v-2.79c1.32-0.02 2.65-0.02 4-0.02v-1.99h-4.02l0.02-0.97c0.74-0.02 2.23-0.07 2.97-0.09 0.01-0.47 0.03-1.42 0.04-1.89-0.88-0.04-2.64-0.12-3.53-0.16 0.34-2.05 1.61-2.14 3.22-1.1 1.09 0.1 2.19 0.2 3.3 0.3v-2.77c-1.24-0.35-2.46-0.71-3.66-1.09zm-4.51 3.64c-1.18 0.92-1.85 0.68-2.01-0.7 1.15-0.93 1.82-0.7 2.01 0.7zm-6.57 2.23c3.01-1.55 0.19 3.28 0 0zm2.38 6.68c0.91 0.11 1.85 0.24 2.8 0.37 1.11 0.8 2.25 1.58 3.42 2.33 0.18 0.68 0.55 2.03 0.73 2.71-3.52-2.07-8.13-1.94-10.48-5.74l-0.1-0.8c1.21 0.35 2.42 0.72 3.63 1.13zm3.98 12.84c-0.94 0.98-2.84-0.45-2.03-1.6 0.91-1.07 2.75 0.48 2.03 1.6zm-10.35-10.53c3.04-1.51 0.13 3.28 0 0zm-6.89 31.02c0.96-1.05 3.42 0.16 2.45 1.58-0.96 1.08-3.35-0.25-2.45-1.58zm2.68 61.61c-1.4 0.32-1.83-0.21-1.28-1.6 1.38-0.34 1.8 0.19 1.28 1.6zm6.47-59.65c-0.79 1.22-1.62 2.42-2.45 3.6 0.27 0.22 0.81 0.64 1.08 0.86-0.84 0.73-1.67 1.47-2.49 2.22-1.26 0.39-2.5 0.82-3.73 1.26 0.02-1.34 0.05-2.67 0.09-4-0.76 0-2.27-0.02-3.02-0.02l-0.04-1.21c1.1 0.08 2.22 0.15 3.35 0.23 0.75-2.39 2.93-3.16 5.22-3.27 0.35-2.48 3.71-2.4 4.14 0-0.53 0.08-1.61 0.25-2.15 0.33zm-3.89-6.16c-1.38-0.52-2.75-1.01-4.12-1.47 1.47-1.37 3.31-1.36 5.14-0.79 2.67-0.77 5.66-1.15 8.01 0.76-2.71 1.78-5.94 1.76-9.03 1.5zm6.75-8.79c2.44-0.13 4.9-0.14 7.37-0.14 0.33 0.51 0.99 1.53 1.32 2.04-2.88-0.44-7.05 1.33-8.69-1.9zm8.58 15.26c-1.32-0.74-1.26-1.37 0.16-1.91 1.28 0.72 1.23 1.36-0.16 1.91zm6.06 8.05c-1.41 0.41-1.89-0.08-1.43-1.47 1.38-0.42 1.86 0.07 1.43 1.47zm-1.31-6.45c-0.72 0.02-2.16 0.05-2.89 0.06 1.71-1.75 3.24-3.8 5.67-4.59-1.65-1.51-3.95-1.52-6.02-1.8 0.59-0.92 1.23-1.8 1.92-2.66 1.31-0.09 2.52 0.51 3.75 0.95-0.05-0.48-0.15-1.43-0.2-1.91 1.34-0.05 2.69-0.08 4.06-0.11-0.89 0.91-1.77 1.83-2.59 2.78 0.74 0.12 2.23 0.36 2.97 0.48 1.02 0.4 2.05 0.8 3.09 1.19 1.67 1.77 3.98 1.14 6.11 0.97 0.83-2.26 3.44-1.08 5.21-1.34-0.69 0.35-2.09 1.04-2.78 1.38-0.01 0.31-0.02 0.94-0.03 1.26-0.63 0.3-1.89 0.91-2.53 1.21-0.52 0.07-1.57 0.22-2.09 0.29-1.88 1.34-3.81 2.69-4.99 4.73 2.44 0.06 4.89 0.02 7.35 0.03-4.03 3.45-9.81 2.26-14.49 1.05-0.51-1.33-1.03-2.65-1.52-3.97zm12.4 12.92c1.14-0.47 2.3-0.9 3.49-1.29 1.23-0.63 2.45-1.25 3.71-1.86 1.22 4.03-4.88 3.3-7.2 3.15zm-0.24 1.78c-0.96 1.25-3.91 0.15-2.61-1.43 0.92-1.22 3.89-0.15 2.61 1.43zm0.39-6.59c3.02-1.53 0.16 3.29 0 0zm-4.81 8.76c-1.14 0.82-4.15-0.54-3.28-2.06 1.28-1.03 4.02 0.34 3.28 2.06zm-4.43-7.49c-1.43 0.41-1.9-0.07-1.42-1.45 1.4-0.41 1.88 0.07 1.42 1.45zm37.86 236.98c0.88-2.45 1.66-5.06-0.74-6.92-0.06-0.5-0.17-1.49-0.23-1.99-0.86-0.92-1.71-1.84-2.53-2.76-2.17 0.23-3.34 2.04-4.43 3.69 0.01-0.83 0.04-2.49 0.05-3.32l-2.04-0.08c0-2.08 0-4.15 0.01-6.21-1.18 0.26-2.35 0.54-3.5 0.84-1.06 0.41-2.09 0.84-3.11 1.29-0.66 0.05-1.98 0.14-2.65 0.19 0.82-1.28 1.63-2.56 2.51-3.8-0.35-1.2-0.71-2.42-1.56-3.34-1.63 0.11-3.15 0.72-4.68 1.18 0-2.26 0-4.52 0.02-6.77-1.24-0.37-2.46-0.76-3.65-1.16-1.16-0.09-2.3-0.17-3.43-0.23 0.53-1.96 0.99-3.93 1.35-5.91-0.75-0.01-2.25-0.03-2.99-0.04-0.32-1.64-0.6-3.29-1.18-4.84 0.85-1.03 1.79-1.98 2.83-2.84 0.01-1.12 0.04-2.23 0.08-3.34-2.32 0.02-4.63 0.05-6.93 0.11 0.48-1.59 1.25-3.3 0.02-4.79-0.2-1.42-0.38-2.84-0.55-4.25 0.31-1.28 0.66-2.54 0.98-3.82 0.1 0.71 0.31 2.12 0.41 2.82 1.6-0.08 3.21-0.15 4.84-0.23 0.69 0.83 1.4 1.66 2.12 2.5 0.08 0.57 0.23 1.7 0.3 2.27 1.97 0.76 3.92 1.56 5.86 2.44-0.06 1.2-0.1 2.4-0.13 3.61 2.53 3.39 5.96 6.21 9.88 7.84 0.05-0.72 0.16-2.17 0.22-2.89 3.46 4.66 7.58 8.8 10.88 13.6 1.08 1.9 3.17 2.61 5.18 3.15 1.11 2.99 1.91 6.12 2.06 9.34 1.09 0.49 3.06 0.11 3.58 1.46 0.54 2.81 0.68 5.68 1.23 8.5-1.08 0.5-2.15 1.02-3.2 1.55 0.33 0.48 1 1.44 1.33 1.92-0.13 0.32-0.39 0.96-0.51 1.28 0.7 3.9-1.32 7.58-2.38 11.22-0.08 0.62-0.23 1.85-0.3 2.46l-0.91 0.03c-0.18-3.24-0.13-6.48-0.38-9.71-0.65-1.86-1.92-3.29-3.73-4.05zm6.28 97.37c-0.21-3.58 0.14-7.38-2.43-10.27 0.93 0.21 3.05-1.15 2.97 0.58 0.27 4.4 3.74 7.82 3.52 12.32-1.39-0.85-2.83-1.59-4.06-2.63zm1.49-14.65c0.53-0.02 1.59-0.06 2.12-0.09 0.39 1.53 0.8 3.07 1.2 4.62-1.97-0.8-3.3-2.35-3.32-4.53zm4.43-78.79c3.28 0.15-1.53 3.03 0 0zm1.88-138.23c-0.49-0.04-1.46-0.11-1.95-0.15 2.56 2.75-1.24 4.65-3.21 6.09-1.66-1.36-3.66-2.06-5.75-2.29-0.05 1.32-0.09 2.65-0.12 3.98 2.3-0.68 4.73-1 6.71 0.76-1.74 1.73-3.86 1.44-5.9 0.5 0.26 0.9 0.54 1.82 0.84 2.74-0.52 0.29-1.56 0.88-2.08 1.18-0.48 0.1-1.44 0.31-1.92 0.41-1.2 0.36-2.39 0.71-3.58 1.05-0.02 0.54-0.07 1.63-0.09 2.17-1.46 2.94-3.05 6.02-6.24 7.37-1.24-0.43-2.47-0.83-3.69-1.2 0-0.64 0.01-1.94 0.02-2.58-1.9-0.05-3.8 0.02-5.66-0.22-0.89-1-1.59-2.14-2.33-3.22-0.03-0.53-0.1-1.6-0.13-2.13-0.55-0.96-1.09-1.92-1.61-2.88-0.38-1.09-0.77-2.18-1.16-3.25-0.1-2.12-0.14-4.25-0.16-6.36 1.34-0.01 2.7-0.02 4.07-0.01 0.16-4.37-0.21-8.73-1.21-12.98-0.35-0.01-1.06-0.03-1.41-0.04-0.57-1.79-1.38-3.45-2.22-5.1 0.53-2.01 1.59-3.82 2.73-5.53-0.05-0.88-0.09-1.75-0.11-2.61-0.72-1.16-0.71-2.31 0.02-3.44 0.15-2.42 0.18-4.83 0.19-7.24 0.54-0.04 1.6-0.12 2.14-0.16-0.19-0.65-0.55-1.96-0.74-2.61 0.6-2.27 1.24-4.53 1.85-6.79 1.19-2.36 2.27-4.77 3.03-7.3 0.85-0.86 1.7-1.71 2.58-2.55 0.07-0.52 0.21-1.56 0.28-2.09 2.69-4.09 5.06-8.39 7.47-12.65 1.29-3.47 5.46-4.06 7.87-6.54 3.8-2.08 4.19-7.32 8.4-8.91 0.84-4.16 2.15-8.18 3.5-12.19 0.15-1.31 1.24-1.97 2.3-2.55 0.34-2.21 0.86-4.39 1.73-6.46 2.71 4.03 2.32 9.23 3.75 13.75 0.43 0 1.3-0.01 1.73-0.01-0.08-4.22 0.75-8.36 0.98-12.55 3.01 2.15 4.22 6.82 8.44 6.9-0.44-1.21-0.88-2.41-1.32-3.6 3.34 1.25 6.54 3.09 8.74 6 0.51 0.08 1.53 0.26 2.03 0.35 0.86 0.97 1.74 1.94 2.62 2.93 0.8-0.05 2.4-0.16 3.2-0.22-1.65-2.4-3.86-4.31-5.94-6.31-2.65-1.48-4.16-4.15-5.89-6.51 0.73 0 2.19 0.01 2.92 0.01 0.41 0.49 1.22 1.48 1.63 1.97 0.55 0.02 1.64 0.06 2.19 0.08 2.49 2 4.83 4.36 7.94 5.41-1.37-1.9-2.91-3.68-4.16-5.65 1.75 0.41 3.51 0.89 5.29 1.32-1.33-2.85-3.7-4.96-6.24-6.69-0.16 0.78-0.5 2.33-0.67 3.1-0.89-0.88-1.8-1.71-2.57-2.67 0.17-1.62 0.65-3.18 0.99-4.77 1.46 0.44 2.9 0.83 4.41 1.2-0.53-3.41-4.6-3.04-7.17-3.44-1.76-1.08-3.41-2.31-4.94-3.68 0.91-0.06 2.72-0.19 3.63-0.26-0.02-0.73-0.05-2.18-0.06-2.91 1.31 0.45 2.63 0.87 3.99 1.29 0.01-0.43 0.04-1.31 0.05-1.74-1.43-0.61-2.81-1.33-3.67-2.66 1.95 0.12 3.92 0.44 5.83 0.95-0.07-0.3-0.22-0.89-0.3-1.19-1.27-1.05-2.3-2.33-3.28-3.61-0.62-0.03-1.85-0.07-2.46-0.09-0.35-0.4-1.03-1.22-1.37-1.62-4.1-1.34-8.8-3.4-9.74-8.08 0.79-0.7 1.59-1.4 2.41-2.1 0.78-0.1 2.34-0.3 3.12-0.41-1.12-0.8-2.24-1.58-3.36-2.33 0.27-0.35 0.82-1.05 1.09-1.4 0.71-0.02 2.14-0.05 2.85-0.07 0.83-1.99 0.53-4.02-0.27-5.96-2.5-0.43-4.99-0.94-7.47-1.42 1.11-1.4 2.47-2.57 3.94-3.6 1.56 0.01 3.13 0.02 4.73 0.04l-0.16-2.44c-0.32-0.65-0.96-1.93-1.28-2.57-2.2 0-4.4 0.01-6.58 0-0.01 0.51-0.04 1.53-0.06 2.03-1.56-0.09-3.1-0.19-4.63-0.25-0.96-0.56-1.9-1.12-2.83-1.67 0.62-0.06 1.86-0.17 2.48-0.23 0.02-0.61 0.07-1.84 0.09-2.45-1.81 0.84-3.44 0.08-4.74-1.22l3.64-0.28c0.01-0.44 0.02-1.32 0.03-1.76 1.42-0.46 2.86-0.93 4.33-1.36 0.76 3.49 4.51 2.89 7.23 3.37 0.98 0.71 1.99 1.41 3.01 2.11 0.51-1.32 1.06-2.62 1.62-3.93-1.79-0.33-3.65-0.57-4.92-1.98 2.56 0.2 5.12 0.51 7.69 0.76 0.01-0.55 0.03-1.66 0.03-2.22l0.35 0.3c0.93 0.94 1.93 1.84 2.96 2.73l2.08 0.4c3.07 1.03 6.9-0.16 9.24 2.6-2.45 0.04-4.89-0.15-7.32-0.11-0.66 1-1.26 2.02-1.81 3.07 6.5 0.21 13-0.05 19.51 0.09 2.29 0.02 4.7 0.18 6.85-0.87 2.03 0.29 4.06 0.66 6.13 0.89-0.46 1.13-0.9 2.27-1.3 3.42-1.12-0.2-2.22-0.4-3.3-0.58-0.38 0.53-1.12 1.59-1.49 2.12-1.73 0.02-3.45 0.04-5.15 0.09 0.74 0.49 1.5 0.98 2.27 1.48 1.74-0.52 3.49-0.6 4.61 1.12-1.06 0.15-3.17 0.46-4.23 0.62 2.89 2.7 7.02 1.49 10.59 1.71 0 0.73 0.01 2.19 0.01 2.92 3.1-0.06 6.32-0.02 9.05 1.73-0.87 0.15-2.6 0.44-3.47 0.58 0.36 2.18 1.94 3.64 3.73 4.78h2.69v2.1c-0.77-0.04-2.3-0.11-3.07-0.15 0.12 0.51 0.37 1.55 0.49 2.06-2.41-0.41-4.34 0.33-4.94 2.83 0.94 0.05 2.84 0.14 3.79 0.18-0.38 0.49-1.14 1.46-1.53 1.95-1.16 0.03-2.3 0.07-3.43 0.11-0.18 0.85-0.54 2.55-0.73 3.41-0.71-0.83-1.4-1.65-2.08-2.48-1.6-0.01-3.19-0.02-4.76-0.02 0.48 1.29 0.97 2.59 1.47 3.9 2.43 0.75 5 1.42 7.43 0.18-1.7 3.85-6.56 3.64-10.07 4.21 0.49 1.42 1.14 2.77 1.95 4.05 2.87-1.48 5.9-2.61 8.89-3.85 1.46 0.23 2.91 0.43 4.41 0.62 0.88-0.49 1.77-0.96 2.68-1.43 0.51 1.13 1.04 2.25 1.59 3.37-4.01 0.8-8.7 1.54-10.67 5.66 0.58 0.09 1.75 0.27 2.33 0.35 0.49 1.32 1.01 2.63 1.53 3.95 1.53-0.05 3.08-0.1 4.64-0.15-3.26 0.75-5.59 2.93-7.71 5.36-2.44 2.84-7.84 3.51-7.48 8.07 3.01-0.59 5.76-2.01 8.4-3.56 1.05 0.55 2.14 1.09 3.25 1.61 1.6-1.78 3.32-3.45 4.8-5.34-0.49-0.53-1.47-1.6-1.95-2.13 2.4-2.11 5.7-2.13 8.62-3.08 0.1 0.59 0.32 1.77 0.43 2.36 1.37-0.5 2.75-0.98 4.16-1.42-0.78 1.09-1.54 2.19-2.32 3.27-1.21 0.02-2.39 0.04-3.56 0.07-0.38 0.62-1.13 1.85-1.51 2.47l0.04 2.96c1.09-0.7 2.18-1.42 3.28-2.14 1.55 1.24 2.72-0.1 3.89-1.05 3.22 2.24 3.74-2.24 4.98-4.27-0.58-0.02-1.74-0.05-2.32-0.06 0.65-1.02 1.31-2.04 1.99-3.05 1.27 1.64 2.55 3.29 3.69 5.06 0.47-0.01 1.41-0.02 1.88-0.03 1.76-1.92 3.7-3.68 5.72-5.34 0.75 1.28 1.55 2.57 2.35 3.85 0.58 2.12 2.37 3.22 4.29 4.01 0.06-0.98 0.18-2.93 0.24-3.9 0.97 0.9 1.94 1.81 2.93 2.73-0.11 0.98-0.19 1.97-0.27 2.96-1.36 2.36-0.13 4.88 0.66 7.19 0.79 2.04 0.17 4.18-0.02 6.27 0.02 2.72 0.54 5.39 1.17 8.03-0.7 0.33-1.38 0.67-2.04 1.02-1.62-0.77-3.23-1.54-4.86-2.22 1.31 2.98 2.63 6.02 2.54 9.35-0.63 0.06-1.9 0.16-2.53 0.21 0.47 1 0.95 2 1.46 3-0.53-0.04-1.58-0.11-2.1-0.14-0.01-0.65-0.03-1.93-0.04-2.58-2.19-2.18-4.3-4.51-7.04-5.99 0.39 1.73 0.84 3.45 1.27 5.19-0.61 0.45-1.84 1.35-2.45 1.79 0.34 1.75 0.7 3.5 1.15 5.24-0.8-0.94-1.58-1.88-2.33-2.81-1.44 0.25-2.86 0.53-4.25 0.88-0.7 0.15-2.12 0.45-2.83 0.6 1.9 2.29 4.13 4.58 3.58 7.85-0.89-1.3-1.75-2.62-2.54-3.96-0.67-0.51-1.33-1.03-1.97-1.54-0.64-1.92-1.71-3.62-3.75-4.23 0.45 1.84 1 3.67 1.51 5.51-0.65 0.02-1.94 0.07-2.59 0.09 0.3 0.35 0.89 1.03 1.18 1.37-0.37 0.75-1.1 2.24-1.47 2.98-2.25-0.92-4.42-2.71-6.97-1.87-2.78-0.96-6.04 1.49-8.08-1.36-0.5-0.06-1.49-0.19-1.99-0.25-1-0.92-1.92-1.93-3.02-2.69-4.59 2.42-5.88-4.01-9.07-5.84-0.1 0.64-0.29 1.92-0.39 2.57-0.62 0.08-1.88 0.26-2.51 0.34 1.63 3.26 5.38 4.51 7.2 7.58 1.45 0.34 2.91 0.67 4.38 1.01v3.13c0.61 0 1.82 0.02 2.43 0.02 0.79 1.23 1.63 2.43 2.51 3.61 0.02 1.47 0.05 2.95 0.11 4.43-0.85 0.03-2.55 0.07-3.4 0.1 0.31 0.6 0.92 1.79 1.23 2.39 0.05 0.49 0.15 1.46 0.2 1.94-1.45-0.03-2.91-0.05-4.33-0.01-0.92-1.42-2.01-2.73-2.63-4.29 0.3-1.17 0.64-2.32 1.03-3.46-1.07 0.3-2.12 0.61-3.15 0.93 0.02 1.65 0.03 3.31 0.03 4.97-2.56-0.75-2.99-3.33-3.34-5.58-0.53-0.04-1.57-0.11-2.09-0.14-1.17-0.85-2.32-1.66-3.5-2.43-0.16 4.15-0.12 8.3-0.06 12.46-1.27-0.41-2.53-0.78-3.79-1.13-1.6-1.62-3.16-3.28-4.62-5.01-2.49-0.27-4.43-1.96-6.47-3.23-0.12 1.7-0.26 3.41-0.4 5.11-1.2-1.43-1.86-3.16-2.21-4.96l-2.08 1.2c-0.62 0.03-1.84 0.1-2.45 0.13-0.01 0.5-0.04 1.48-0.05 1.97h-2.38c0.11-0.51 0.32-1.52 0.42-2.02-0.64 0.01-1.91 0.04-2.54 0.06 0.21-1.23 0.42-2.45 0.65-3.66-0.67-0.29-2.02-0.86-2.69-1.14 0.75-0.15 2.26-0.45 3.01-0.6-0.47-2.41-2.62-3.58-4.29-5.07-0.2-1.16-0.33-2.32-0.39-3.49-1.16-0.88-2.33-1.74-3.5-2.56l-0.48 2.88c-0.34 0.96-0.66 1.93-0.95 2.91 0.96 1 2 1.96 2.87 3.08-0.69 3.04 0.32 6.01 1.32 8.85-3.3 2.29-5.48-1.68-8.31-2.82 0.28 0.79 0.82 2.38 1.1 3.17 0.07 0.56 0.23 1.69 0.31 2.26 0.71 0.02 2.15 0.07 2.86 0.1 0.01 0.86 0.02 2.57 0.02 3.43 0.4-0.41 1.18-1.22 1.58-1.63 1.31 1.69 2.55 3.46 3.74 5.26-0.68 0.03-2.04 0.11-2.72 0.15-1.16 0.62-2.24 1.35-3.45 1.83-3.77-1.4-7.03-3.8-10.64-5.48 0.89 3.11 3.73 4.9 5.69 7.28 1.79 2.2 3.5 4.46 5.26 6.69 1.07 0.87 2.11 1.77 3.16 2.71-0.75-0.08-2.26-0.23-3.02-0.31-1.61-1.24-3.35-2.28-5.1-3.26-0.55 2.11-1.16 5.95-4.29 4.6-0.32 0.41-0.95 1.23-1.27 1.65-1.84-0.46-3.71-0.83-5.55-1.1 1.38 3.13 5.08 3.97 7.36 6.3-1.44-0.17-2.86-0.36-4.26-0.58-0.32 0.11-0.95 0.33-1.27 0.44-1.53-0.47-3.09-0.89-4.62-1.26-0.1 4.16 3.94 5.02 7.04 6.17-2.82 0.47-5.68-1.42-8.36-0.07-1.87 0.19-3.74 0.33-5.59 0.48 0.32 1.27 0.43 2.74 1.62 3.58 3.12 0.71 6.69-0.36 9.47 1.64 1.84 1.44 1.5 4.1 2.17 6.13-0.85-0.84-1.68-1.68-2.47-2.54-0.61-0.03-1.83-0.08-2.45-0.11-0.01 0.52-0.04 1.56-0.06 2.08zm11.2-106.87c1.35-0.39 3.76 1.05 3.17 2.65-1.38 0.67-3.41-1.31-3.17-2.65zm11.29-15.13c-1.41 0.48-1.91 0.03-1.5-1.37 1.37-0.49 1.87-0.04 1.5 1.37zm2.62-4.36c3.31 0.19-1.59 2.93 0 0zm19.01 82.46c-0.07 0.89-0.21 2.67-0.28 3.56-1.1-1.31-1.91-2.79-2.42-4.4 0.68 0.21 2.03 0.63 2.7 0.84zm-38.14 255.96c0.04-0.67 0.12-2 0.16-2.67 0.33 0.65 0.98 1.93 1.3 2.58l2.28-0.08c2.78 2.1 4.72 5.08 5.86 8.35-1.62-0.51-3.2-1.05-4.79-1.56-1.43-0.17-2.84-0.46-4.23-0.74-1.77-2.71-4.09-5.1-5.03-8.26 1.49 0.75 2.97 1.56 4.45 2.38zm34.9 17.51c-0.68 1.03-1.36 2.07-2.03 3.11 0.33 0.98 0.7 1.97 1.1 2.96-0.04 1.18-0.08 2.38-0.11 3.59-0.8 2.76-0.99 5.67-1.81 8.44-2.01 0.3-3.93 0.93-5.62 2.03-1.98 0.28-4.54-0.15-4.98 2.45-2.17-0.15-4.18-0.92-6.02-2.01-0.57-0.06-1.71-0.19-2.28-0.26-0.13-1.08-0.25-2.15-0.36-3.21-0.56-1.74-0.75-3.55-0.93-5.33-0.79-0.88-1.57-1.76-2.33-2.62-1.04 0.32-2.07 0.66-3.06 1.03-0.94-1.55-2.08-2.97-3.28-4.29-0.07-0.49-0.23-1.48-0.3-1.97-1.08-1.98-2.19-3.95-2.97-6.05 0.52-0.22 1.57-0.67 2.09-0.9 0.06-0.79 0.18-2.36 0.24-3.15 3.37 2.58 6.61 5.36 10.28 7.55 1.59 0 3.17-0.01 4.79 0.01-0.33-1.2-0.61-2.37-0.92-3.54 0.25-0.93 0.51-1.85 0.79-2.76-1.71-1.05-3.38-2.14-5.09-3.14l-0.09-0.55h3.09c-0.07-1.17-0.11-2.33-0.15-3.48-0.8-1.15-1.57-2.31-2.32-3.47 0.86-0.02 2.56-0.05 3.41-0.07 0-0.51 0.01-1.53 0.01-2.04l0.41 0.17c0.89 1.87 2.34 3.22 4.53 3.23l0.08-3.32c2.9-0.03 5.91 0.29 8.7-0.77 1.01-0.13 2.04-0.25 3.08-0.36 0.19 1.89 0.37 3.79 0.73 5.67 0.6 2.12 1.55 4.17 2.05 6.34-0.25 2.23-0.57 4.45-0.73 6.71zm-15.31-39.87c1.98-1.02 3.82-2.56 6.11-2.83 1.26 1.07 1.33 2.72 1.61 4.24-2.58-0.48-5.14-1.01-7.72-1.41zm10.12 12.94c0.5 0.1 1.48 0.31 1.98 0.42 0.31 0.61 0.95 1.85 1.27 2.47 0.03 0.69 0.09 2.07 0.11 2.76-1.25-0.36-2.48-0.75-3.69-1.15-1.33-0.09-2.65-0.16-3.95-0.22-2.07-1.17-3.87-2.74-5.04-4.82 1.82 0.38 3.86 1.45 5.49-0.17 1.26 0.18 2.55 0.41 3.83 0.71zm51.23-93.1c-1.67 2.5-3.31 5.05-4.48 7.83-3.08 5.46-5.98 11.16-10.04 16-0.27 2.08-1.73 3.46-3.49 4.38-1.49-0.41-2.99-0.73-4.48-1.02-2.7-1.59-5.32-3.29-7.9-5.05-2.21-3.75-7.69-5.24-7.84-10.1-4.78-4.73-7.19-11.23-10.26-17.09-0.64-1.06-1.3-2.1-1.98-3.1-1.33-5.46-6.63-8.82-7.43-14.46-0.68-3.56-3.78-6.05-4.3-9.66-1.06-1.74-2.28-3.35-3.6-4.87-0.03-0.55-0.1-1.65-0.13-2.2-0.44-0.38-1.33-1.13-1.78-1.5-0.43-1.84-0.91-3.65-1.34-5.47-1.29-1.21-2.56-2.43-3.84-3.62-0.01-1.85-0.01-3.7 0-5.53 0.66-0.12 1.98-0.34 2.64-0.46 0.13-0.55 0.41-1.66 0.54-2.22 2.11-2.13 3.29-5.76 6.76-5.83 0.02 1.46 0.05 2.94 0.08 4.42 1.07-0.04 2.16-0.06 3.26-0.08 0.81-2.79 3.83-1.86 6.01-2.21 0.67-0.2 2-0.6 2.66-0.79 0.59 1.03 1.13 2.11 1.61 3.23 2.23-0.24 4.42-0.74 6.62-1.22 0.07 2.32-0.12 4.64-0.2 6.96 0.5 0.03 1.5 0.1 2 0.13 0.04 1.41 0.1 2.83 0.18 4.25 1.11-0.22 2.22-0.49 3.33-0.8 0.71-1.51 0.46-3.27 0.71-4.88 1.28-2.3 2.38-4.7 3.64-7.02 1.28 1.94 2.48 3.95 3.52 6.05 1.39 1.06 2.81 2.13 4.44 2.85 0.07-0.62 0.21-1.88 0.27-2.51 0.63 0 1.88 0.01 2.5 0.01 1.76 4.49 4.63 8.81 9.39 10.51 0.26-3.84-0.1-7.67-1.17-11.35 1.93 2.59 2.89 6.31 6.3 7.41-0.1-2.17-0.02-4.41-0.94-6.42 0.29-2.06 0.56-4.12 0.68-6.19 1.83 1.92 3.66 3.86 5.71 5.59 0.37-1.75 0.69-3.5 1.18-5.22l0.36-2.12c1.54-0.38 3.07-0.87 4.66-1.15 2.92 2.48 1.22 6.37 2.4 9.54 2.96 0.87 5.32 2.76 5.17 6.13 0.39 0.37 1.15 1.1 1.53 1.47 0.64 2.84 1.23 5.7 1.62 8.61 0.6 0.04 1.8 0.14 2.4 0.19 1.78 1.74 2.17 4.12 2.58 6.49 1.35 2.15 2.99 4.11 4.61 6.09 0.1 3.51-0.57 6.97-1.19 10.41-3.87 3.13-8.35 5.58-13.33 6.3-1.39 0.5-2.77 1-4.12 1.54-0.49 0.06-1.46 0.17-1.94 0.22-0.95 1.94-2.01 3.82-3.3 5.55-0.07 0.49-0.21 1.48-0.28 1.98zm9.17 117.91c-0.05 1.16-0.08 2.33-0.09 3.51h-0.97v-2.99c-0.64 0-1.91-0.01-2.54-0.01-0.73-1.23-1.46-2.43-2.2-3.62 0.56-0.61 1.14-1.21 1.75-1.8-0.04-1.24-0.06-2.47-0.07-3.68 1 0.49 2.02 0.98 3.05 1.47 0.01 0.4 0.03 1.21 0.05 1.61 0.39 0.01 1.19 0.02 1.59 0.02 0.31 0.64 0.94 1.91 1.26 2.54-0.63 0.97-1.24 1.96-1.83 2.95zm19.51 4.46c-0.78-0.95-1.62-1.82-2.52-2.61-0.06-1.98-0.07-3.95-0.05-5.91-1.81-0.8-3.47-2.97-5.6-1.86-1.21-1.07-2.7-1.59-4.23-1.9-0.06 0.59-0.17 1.75-0.23 2.33l-1.05 0.02c0.09-0.63 0.26-1.87 0.34-2.5 1.12-0.45 2.24-0.92 3.38-1.38 0.46-0.03 1.37-0.08 1.83-0.11 1.17 0.98 2.34 2.46 4.04 1.52 1.37 0.22 2.78 0.18 4.2 0.13 0.94 2.19 1.99 4.34 3.23 6.4 0.03 1.23 0.08 2.47 0.14 3.71-1.17 0.72-2.33 1.44-3.48 2.16zm6.51-388.87c-0.89 2.78-3.23 4.66-5.45 6.36 0.59-2.24 1.7-4.29 3.23-6.03 0.08-0.72 0.24-2.15 0.32-2.87 1.47 0.3 2.1 1.15 1.9 2.54zm215.77 119.12c2.85 2.82 4.61 6.48 6.94 9.72-0.73-0.29-2.19-0.86-2.92-1.14 0.48 1.04 0.96 2.1 1.46 3.17-1.37 0.02-2.71 0.05-4.04 0.09-1.39-1.6-2.76-3.22-3.98-4.93-0.67-0.06-2-0.19-2.67-0.25 0.42-1.32 0.87-2.63 1.37-3.93-2.17-1.88-4.46-3.75-5.83-6.32 3.41 0.76 6 3.73 9.67 3.59zm-13.44-3.17c0.89-0.86 3.1 0.11 2.52 1.45-0.89 0.74-3.06-0.22-2.52-1.45zm2.08 14.47c-2.88-0.81-5.13-3.04-5.99-5.89 2.65 1.14 5.38 2.81 5.99 5.89zm-13.41-42.6c3.32 0.07-1.49 2.98 0 0zm-7.56-20.94c1.04 0.01 2.1 0.02 3.18 0.05 0.64 0.78 1.3 1.57 1.97 2.36-0.22 0.46-0.66 1.39-0.89 1.85-1.08-1.03-2.14-2.07-3.18-3.11-0.61-0.01-1.85-0.03-2.47-0.04-1.06-1.46-2.09-2.97-2.66-4.67 1.39 1.11 2.74 2.31 4.05 3.56zm-7.41 19.4c1.42-0.93 3.12 1.45 1.83 2.54-1.44 0.92-3.18-1.49-1.83-2.54zm-1.89 18.73c1.27-1.14 2.86 1.13 1.64 2.13-1.29 1.07-2.88-1.15-1.64-2.13zm3.55 49.14c1.16 0.21 1.84 2.13 0.69 2.77-1.15-0.15-2.42-2.67-0.69-2.77zm-4.41-84.1c1.38-0.42 1.89 0.08 1.53 1.49-1.4 0.4-1.91-0.1-1.53-1.49zm-5.28 90.74c-1.85-1-2.64-2.93-3.54-4.67 0.65-0.08 1.93-0.22 2.58-0.3-0.16-1-0.3-2-0.42-2.98 0.96 1.25 1.92 2.51 2.87 3.8-0.7 0.11-2.09 0.31-2.79 0.41 0.43 1.24 0.86 2.48 1.3 3.74zm-2.19-61.67c0.16 1.59-1.07 3.71 0.94 4.62-0.86 0.53-1.71 1.06-2.53 1.59-0.49-2.67-1.1-5.31-1.51-7.98 1.06 0.5 2.09 1.09 3.1 1.77zm-4.66 66.92l-1.15-0.02c-0.05-0.63-0.16-1.91-0.21-2.55-0.9-1.71-1.79-3.45-2.7-5.14-0.61 2.91 0.03 5.94-0.91 8.79 0.25 0.51 0.75 1.52 1 2.03-0.79-0.07-2.39-0.22-3.19-0.29 0.09 0.48 0.27 1.43 0.36 1.91-1.17-0.13-2.25-0.33-3.39-0.25-0.29 2.23-0.06 4.51 0.89 6.59-1.62 0.31-3.18 0.14-4.61-0.64-2.42-0.25-4.87-0.26-7.27 0.04-1.57-0.29-3.14-0.55-4.68-0.79-1.51-1.53-3.07-3-4.65-4.43 0.35-0.97 0.74-1.92 1.16-2.86 0.85 0.5 2.54 1.51 3.39 2.02-0.25-0.77-0.76-2.3-1.01-3.07l-0.48-2.04c-0.51-0.42-1.53-1.25-2.04-1.67 0.74 0.32 2.22 0.97 2.97 1.3 1.08-1.23 2.07-2.55 2.85-4 0.36-0.03 1.09-0.09 1.45-0.12-0.05-1.69-0.08-3.37-0.09-5.05 1.63-0.67 3.37-1.09 4.99-0.06 0.34-0.47 1.03-1.41 1.37-1.88-0.37-0.4-1.12-1.2-1.5-1.6 1.44-0.4 3.01-0.66 4.29-1.56-0.33-1.05-0.68-2.08-1.05-3.09 0.7 0.4 1.42 0.8 2.17 1.2 1.13-0.42 2.29-0.82 3.46-1.2 0.31 1.67 0.62 3.37 1.1 5.02 0.1 1.03 0.21 2.07 0.34 3.11 0.94 0.45 1.91 0.91 2.89 1.37 0.01-2.28 0.03-4.56 0.18-6.83 1.39 1.53 2.61 3.22 3.75 4.97 0.67 2.75 1.81 5.72 0.31 8.43 0 0.59 0.01 1.77 0.01 2.36zm-6.93 14.93c-0.36-1.25-0.68-2.48-1.04-3.7 0.82-1.2 1.63-2.41 2.45-3.62 0.38 1 0.79 2 1.21 3.01-0.48 0.4-1.44 1.21-1.92 1.61v2.65l-0.7 0.05zm-4.84 1.83c-0.56 2.02-4.52 0.54-3.46-1.33 1.11-0.75 3.18-0.05 3.46 1.33zm-1.36-93.61c3.28 0.19-1.55 3.01 0 0zm12.06-30.08c1.36-0.28 1.9 0.26 1.62 1.64-1.41 0.28-1.95-0.26-1.62-1.64zm-1.47-4.11c2.95-1.51 0.1 3.33 0 0zm-6.13-3.73c-2.26-0.74-4.4-1.72-6.56-2.65-0.04-0.74-0.12-2.23-0.16-2.97 2.34 1.69 5.67 2.63 6.72 5.62zm-21.02 6.87c3.63 1.87 7.24 3.86 11.16 5.11 0.4 0.34 1.19 1.02 1.59 1.36 1.43 0.31 2.89 0.61 4.35 1.01 0.51 0.1 1.55 0.3 2.07 0.39l1.64 1.92c1.14-0.03 2.3-0.06 3.47-0.08 0.92 1.31 1.83 2.64 2.7 4.01 0.37 0.03 1.1 0.1 1.47 0.14l0.05 1.43c-0.89-0.16-2.66-0.48-3.55-0.65 0.57 2.18 2.23 3.67 3.84 5.12-0.94 0.04-2.83 0.11-3.78 0.14 0.66 1.15 1.34 2.3 2.06 3.44-1.06 0.58-2.09 1.17-3.11 1.76-0.8 1.46-2.02 2.57-3.52 3.27 0.02-1.65 0.1-3.27 0.23-4.9 0.64-1.82 0.77-3.76 0.97-5.66-0.78 0.01-2.34 0.02-3.12 0.02-0.01 0.78-0.04 2.34-0.06 3.12-1.05-0.82-2.07-1.67-3.14-2.4-1.28 0.74-1.81 2.1-2.12 3.46 1.93 1.01 3.02 2.85 3.8 4.83-2.42-0.48-5.23-3.1-7.37-0.7-1.08 0.79-2.44-0.57-3.56-0.48 0.32 0.68 0.95 2.03 1.26 2.71 0.05 0.62 0.15 1.85 0.21 2.46-0.57-0.34-1.7-1.01-2.27-1.35 0.37 1.16 0.74 2.34 1.1 3.53-0.7 1.33-2 2.24-2.99 3.32-0.08-2.12-0.02-4.28 0.83-6.25 0.1-1.11 0.22-2.21 0.35-3.31-0.75 0.01-2.24 0.03-2.99 0.04l-0.16 3.08c-1.85-0.09-3.69-0.08-5.49-0.35-0.61-1.92-1.01-3.88-1.53-5.82 0.48-0.29 1.43-0.87 1.91-1.17 0.04-0.62 0.12-1.86 0.16-2.49-1.74-0.23-3.43-0.6-5.05-1.19 0-1.29 0.02-2.58 0.06-3.86-1.9-0.19-3.95-0.23-5.12-1.97 0.83-0.09 2.5-0.26 3.33-0.35-0.24-2.08-0.57-4.15-1.04-6.18 1.94 0.34 3.89 0.81 5.82 1.35-0.06-1.56-0.08-3.12-0.07-4.67-2.48-0.82-4.65-2.25-6.02-4.5 1.43 0.15 3.02 0.36 4.5 0.56 2.4-0.65 4.77 0.3 7.13 0.75zm-12.43 6.34v-2.14c2.11-1.25 2.1 3.37 0 2.14zm9.12-16.54c0.9-0.87 2.98 0.31 2.39 1.55-0.94 0.67-3.12-0.3-2.39-1.55zm-1.97-86.91c2.99-1.6 0.23 3.28 0 0zm0.47 86.68c-1.2 0.59-2.73-0.32-3.47-1.23 0.38-1.62 3.91-0.33 3.47 1.23zm-6.61-83.52c3.4-0.44 0.07 4.18-0.82 1.06 0.21-0.26 0.62-0.79 0.82-1.06zm0.41 84.35c0.48 0.15 1.45 0.44 1.93 0.58 0.61 0.28 1.83 0.85 2.44 1.13l0.76 1.68c-3.27-1.01-6.75-1.79-9.37-4.13 1.41 0.19 2.82 0.44 4.24 0.74zm-9.29 35.85c-2.12-1.56-4.11-3.26-6.11-4.93-0.12-0.54-0.37-1.61-0.49-2.15-2.43-0.84-4.78-1.9-6.73-3.58 0.03-0.79 0.09-2.36 0.12-3.15 1.9 1.8 3.64 3.79 5.79 5.33 0.48-0.2 1.44-0.62 1.93-0.82 1.43 0.94 2.82 1.96 4.22 2.99 0.48 2.09 0.92 4.18 1.27 6.31zm-7.58 25.6c0.83-1.21 2.86 0.22 1.85 1.38-0.87 1.17-2.87-0.24-1.85-1.38zm1.46 7.42c1-0.44 2.72 0.91 1.47 1.8-1.46 1.4-4.02-1.33-1.47-1.8zm-2.65-17.94c-1.66-0.64-3.31-1.29-4.97-1.86l-1.8 2.32c-2.05-0.01-4.08-0.02-6.09-0.04-0.63-1.42-1.92-1.99-3.31-2.31-0.37-0.3-1.1-0.91-1.47-1.21 1.18-0.64 2.37-1.29 3.56-1.95 1.22 0.48 2.45 0.98 3.7 1.51-0.03-0.42-0.1-1.26-0.13-1.67 1.26-0.4 2.54-0.81 3.81-1.24 1.93 0.84 3.85 1.72 5.75 2.68 0.5 0.1 1.48 0.29 1.98 0.39 1.04 0.76 2.12 1.52 3.22 2.25 0.42 1.34 0.86 2.66 1.35 4-1.84-1.02-3.66-2.07-5.6-2.87zm-7.47 4.05c1.8-0.27 3.91 0.25 5.69 0.79-0.84 1.36-5.63 1.32-5.69-0.79zm4.62 8.65c0.05 1.43-2.51 1.22-3.26 0.51-0.07-1.45 2.46-1.25 3.26-0.51zm-5.37-3.13c2.97-1.63 0.27 3.27 0 0zm-3.59-26.07c3.02-1.4-0.03 3.32 0 0zm7.27-1.6c-1.24 0.78-3.03-1.08-2.18-2.26 1.15-0.85 3.04 1.1 2.18 2.26zm-2.25 9.4c-0.99 0.79-2.99-0.47-2.36-1.68 0.95-0.8 2.93 0.47 2.36 1.68zm11.37-32.56c1.29-0.46 3.19 1.24 2.85 2.59-1.32 0.39-3.19-1.25-2.85-2.59zm-4.37 7.86c3.31 1.55 5.72 4.5 5.75 8.3-3.69-3.14-8.54-5.31-11.03-9.6 1.75 0.39 3.5 0.89 5.28 1.3zm-4.88 2.38c-0.03 0.27-0.1 0.82-0.13 1.1-1.57-0.64-3.12-1.3-4.66-1.93-0.02-0.47-0.05-1.41-0.06-1.88 1.6 0.91 3.22 1.81 4.85 2.71zm-9.2 5.6c0.68-0.05 2.04-0.16 2.72-0.21-0.39 0.52-1.16 1.56-1.54 2.08 1.46 1.63 2.95 3.31 3.8 5.38-2.67-1.26-4.97-3.1-7.35-4.8-0.25-0.28-0.74-0.83-0.99-1.11 1.11-0.44 2.23-0.89 3.36-1.34zm1.01 9.23c-2.08-0.75-4.99-1.05-5.1-3.86 2.06 0.73 4.25 1.62 5.1 3.86zm-11.24-144.78c1.21-0.45 2.36 1.56 1.68 2.54-1.29 0.5-2.39-1.55-1.68-2.54zm0.91 167.71c1.81-0.51 3.18 0.45 4.34 1.8-2.22-0.2-4.4-0.51-6.57-0.81 0.73-0.34 1.46-0.68 2.23-0.99zm-5 1.78c3.07-1.44 0.04 3.29 0 0zm-2.27-12.96c3.01-1.44 0.02 3.32 0 0zm2.97 5.67c0.01 0.51 0.02 1.53 0.03 2.04-2.34 0.24-4.64 0.58-6.94 0.86 1.87-1.84 4.2-3.04 6.91-2.9zm-8.36 0.08c-0.81-1.1 0.91-2.79 1.93-1.75 0.73 1.05-0.98 2.76-1.93 1.75zm0.55-62.39c1.42-1.23 3.2 1.23 1.59 2.21-1.46 1.24-3.22-1.24-1.59-2.21zm-3.05-95.34c1.48 0.13 2.76 2.54 2.67 3.99-1.73 0.23-2.97-2.51-2.67-3.99zm-14.46 231.74c0.61 0.04 1.83 0.14 2.45 0.19-0.01-2.75-0.2-5.52-1.33-8.06 1.23 0.47 2.5 1.07 3.88 1.05 0.6-0.92 1.17-1.86 1.71-2.82 1.2 0.38 2.4 0.73 3.65 1.09l-0.12-3.24c2.13 1.03 4.6 1.34 6.75 0.13 0.58 1.44 1.99 1.82 3.38 2.19-0.05-0.7-0.14-2.1-0.18-2.8l-1.2-2.88c1.43 0.42 2.9 0.89 4.36 1.35 0-0.7-0.01-2.1-0.01-2.8-5.17-2.03-8.43-6.63-10.56-11.53 3.15 1.18 5.45 3.61 7.59 6.12 0.79-0.13 1.59-0.28 2.41-0.44 1.37 0.27 2.76 0.53 4.16 0.76-1.05-1.84-2.37-3.5-3.78-5.05-1.23 0.1-2.43 0.04-3.6-0.18-0.17-1.48-0.28-2.96-0.31-4.43-1.77-1.21-3.62-2.35-4.9-4.09 2.45 0.16 4.65 1.07 5.69 3.47 3.31-1.58 6.16 1.61 9.24 2.46-0.07-0.74-0.2-2.21-0.26-2.94-0.88-1.18-1.74-2.37-2.54-3.56 1.41 0.21 2.84 0.43 4.28 0.66-0.26-2.26-2.04-3.53-3.85-4.56 0.76-0.06 2.3-0.16 3.07-0.22-0.77-1.25-2.09-1.71-3.4-2.07l-1.64-1.72c0.7 0.04 2.09 0.12 2.79 0.16 2.29 1.28 4.68 2.38 7.18 3.23 2.27 1.09 4.55 2.19 6.95 3.02-0.58-1.31-1.05-2.85-2.54-3.34-3.63-1.85-7.37-3.57-10.56-6.15 3.21 0.26 6.36 1 9.57 1.33 0-0.73 0.01-2.19 0.01-2.92-1.35-0.51-2.68-1.04-4-1.55l-0.02-0.76c1.32 0 2.66 0 4.02 0.02v-1.93c-4.77 0.18-9.46-0.73-14.16-1.32-2.52-0.75-4.95-1.86-7.61-1.95-0.38-0.45-1.14-1.34-1.52-1.79 3.86-0.06 7.74-0.11 11.62 0.14 2.1 1.01 4.34 1.69 6.63 2.17 0.01-0.42 0.01-1.27 0.01-1.7-2.96-1.26-3.64-4.67-5.91-6.67 3.12-1.15 6.7-1.55 9.81-0.09 0.52-0.1 1.58-0.3 2.1-0.4l0.1 1.55c1.62 0 3.26-0.01 4.92 0 0 0.62 0.01 1.87 0.01 2.49 1.23 0.7 2.46 1.43 3.69 2.19-0.8 0.15-2.39 0.47-3.19 0.62 0.87 1.26 1.79 2.5 2.72 3.74 1.89-0.03 3.8-0.06 5.72-0.08 0.03 0.58 0.1 1.72 0.13 2.3 0.59-0.25 1.77-0.76 2.36-1.01 3.8 0.56 7.8 2.02 11.58 0.58 0.01 0.86 0.02 2.57 0.02 3.43 1.31-0.47 2.63-0.96 3.97-1.44 0 0.54 0 1.61 0.01 2.14-0.5 0.02-1.5 0.05-2 0.07 0 0.4-0.01 1.21-0.01 1.61-2.08 0.81-5.07 0.89-5.56 3.6 3.32-0.21 6.36-1.58 9.49-2.6 0.02 0.57 0.07 1.71 0.09 2.27-0.61 0.07-1.82 0.2-2.43 0.26-4.24 0.96-8.28 4.82-12.72 3.09 0.05 0.42 0.16 1.25 0.21 1.67-2.01 0.54-4.05 1.01-6.08 1.35v1.67c1.68 0.04 3.39 0.1 5.1 0.18-2.6 2.36-5.98 3.51-8.71 5.66-0.46 0.09-1.39 0.25-1.85 0.34-1.89 3.14-5.68 4.57-7.15 8.01 1.52-0.21 3.11-0.42 4.67-0.68-0.02 0.68-0.05 2.04-0.07 2.72 1.41-0.46 2.82-0.93 4.28-1.35-2.42 3.46-5.9 5.83-9.38 8.07-5.48 4.97-12.36 7.89-18.4 12.07-4.17 0.05-8.34 0.03-12.5 0.03 0 0.66 0.02 1.98 0.03 2.64 1.04 0.97 2.1 1.95 3.17 2.94-1.6 0.69-3.17 1.42-4.72 2.18-0.46 0.16-1.38 0.47-1.84 0.63-1.09 0.3-2.2 0.52-3.3 0.66-2.44-3.57-4.23-7.56-5.7-11.6 1.38 0.7 2.72 1.53 4.03 2.42zm-13.85 6.45c0.16 1.24 0.28 2.49 0.38 3.75 0.56-0.05 1.69-0.16 2.26-0.22 1.49-0.79 3-1.55 4.55-2.27-0.02-1.3-0.02-2.6 0-3.89 0.44 0.38 1.33 1.16 1.77 1.54 0.26 1.07 0.55 2.15 0.85 3.22-0.31 1.18-0.62 2.35-0.88 3.55-0.43 0-1.3 0.02-1.74 0.03 0.01 0.47 0.01 1.41 0.02 1.88-2.58 0.94-5.3 1.19-8.01 1.2-0.01 0.47-0.03 1.42-0.04 1.89l-0.86 0.02c-0.1-0.59-0.3-1.77-0.41-2.36-0.59-2.44-0.82-4.94-1.46-7.36-0.14-1.21-0.26-2.42-0.35-3.62 1.31 0.84 2.73 1.59 3.92 2.64zm-6.6 5.69l0.8-0.03 0.06 1.15c-0.97-0.48-1.9-0.94-2.83-1.39 1.09-1.72 0.32-3.63-0.01-5.42 1.56 1.52 1.88 3.6 1.98 5.69zm-5.96-173.92c3-1.57 0.21 3.29 0 0zm-3.11 149.65c1.26-1.12 2.87 1.11 1.53 2.05-1.32 1.2-2.89-1.11-1.53-2.05zm-14 158.13c-0.3-1.32 1.46-3.12 2.8-2.68 0.4 1.37-1.51 3.03-2.8 2.68zm12.04 19.19c2.14 0.37 4.29 1.12 6.51 0.86 2.01-1.05 0.8-3.23 0.84-4.94 0.03-1.25 0.31-2.46 0.37-3.7-0.99-1.46-2.79-1.23-4.29-1.4-1.01 0.88-2.02 1.74-3.04 2.58 0.54-3.18 3.65-4.56 5.86-6.46 1.67 1.7 3.44 3.32 5.49 4.59 0.04 0.34 0.12 1.04 0.15 1.39 0.48 0.01 1.42 0.03 1.89 0.03 0.01 0.4 0.04 1.21 0.06 1.61 3.04 0.29 5.5 2.05 7.49 4.28-0.63 0.04-1.9 0.12-2.53 0.16 0.02 0.51 0.07 1.54 0.09 2.05-2.69-2.72-6.57-2.12-10.03-2.15l-0.04 1.96c-2.56 0.9-5.27 1.17-7.95 1.19-0.22-0.51-0.65-1.54-0.87-2.05zm19.49 6.96c-0.74 1.35-1.45 2.71-2.13 4.08-2.12-0.1-4.28-0.08-6.26-0.87-1.27-0.12-2.53-0.23-3.76-0.31 0.16-0.72 0.49-2.16 0.65-2.88 3.82-0.01 7.67-0.51 11.5-0.02zm4.15 21.73c-1.46 1.35-3.22 2.34-4.92 3.34-5.05-2.65-6.48-8.55-8.01-13.55-1.63-1-3.1-2.19-4.47-3.48 0.72 0.04 2.15 0.12 2.87 0.16 1.71 0.57 3.52 0.77 5.34 0.99 1.94 2.17 4.18 4.23 7.33 4.06 0.01-0.84 0.05-2.53 0.06-3.38 0.5 0.01 1.49 0.01 1.98 0.02-0.45 1.11-0.85 2.25-1.24 3.4 1.1 0.59 2.17 1.24 3.23 1.96-0.52 2.2-1 4.51-2.17 6.48zm33.02-43.15c-1.35-0.23-1.57-0.96-0.68-2.18 1.31 0.21 1.53 0.94 0.68 2.18zm4.26-5.42c-1.29-0.65-1.24-1.33 0.14-2.04 1.24 0.65 1.19 1.33-0.14 2.04zm51.16 36.92c3.01-1.57 0.2 3.28 0 0zm-2.99-10.84c1.61-0.7 3.79-0.82 5.38 0.06-0.63 1.26-5.52 1.77-5.38-0.06zm12.23-3.76c-1.43 0.53-1.87 0.08-1.33-1.34 1.42-0.52 1.86-0.07 1.33 1.34zm14.96-80.92c-1.4 1.2-2.62-1.36-1.41-2.25 1.32-1.08 2.67 1.37 1.41 2.25zm22.37 3.13c-0.93 0.86-2.13 1.32-3.21 1.9-1.47 0.21-2.94 0.31-4.39 0.34 0.17-1.14 0.44-2.25 0.72-3.36-0.63-0.45-1.89-1.37-2.53-1.83 0.79 0.25 2.37 0.73 3.16 0.97 1.62 0.09 3.26 0.18 4.92 0.28 0.44-0.74 1.34-2.22 1.78-2.96-0.1 1.55-0.25 3.11-0.45 4.66zm18.98-37.87c-1.75 1.74-3.59 3.4-5.63 4.77 0.15 0.16 0.47 0.47 0.62 0.63-0.83 1.87-1.5 3.79-2.13 5.74-0.34 0.01-1.01 0.03-1.34 0.04-0.45 1.53-0.91 3.06-1.41 4.58-2.16 1.31-4.05 2.98-5.87 4.69-0.02 0.67-0.05 2.02-0.07 2.69-0.5 0.01-1.5 0.03-2 0.05 0.02 1.55 0.07 3.12 0.13 4.69-2.16 0.56-4.25 1.39-6.44 1.71-1.98-0.21-3.8-1.11-5.68-1.66-0.01-1.13-0.01-2.24 0.01-3.36-0.86-0.66-1.7-1.31-2.52-1.97-1.5 0.24-2.98 0.48-4.44 0.72-0.06-1.71-0.08-3.41-0.11-5.1-1.34-0.03-2.66-0.06-3.96-0.08 0.03 0.73 0.09 2.2 0.12 2.94-1.58-0.51-3.17-0.94-4.74-1.36-0.14-0.53-0.4-1.58-0.54-2.11-0.74-1.15-1.44-2.3-2.13-3.45-2.5 0-4.99 0.02-7.46 0.06-1.68-3.16-2.02-7.07-4.64-9.65-0.86-0.99-1.71-1.97-2.54-2.93-0.01-0.6-0.05-1.8-0.06-2.4-0.5-0.04-1.49-0.1-1.98-0.14v-2.93c-0.74-0.01-2.22-0.03-2.96-0.05 0.6 2.1 0.93 4.26 1.1 6.44-1.53 0.92-2.99 1.93-4.44 2.93 0.49 1.36 0.54 2.85 1.12 4.22-0.52 0.93-1.05 1.88-1.51 2.84-1.51-1.63-3.28-2.94-5.29-3.84-0.02-0.64-0.05-1.92-0.07-2.56-1.23-0.46-2.48-0.9-3.69-1.31-0.43 1.12-0.8 2.26-1.12 3.42 1.48 2.39 3.37 4.53 4.42 7.18-1.67-0.35-3.29-0.75-4.92-1.18 0.2 1.14 0.47 2.28 0.8 3.41 2.17 0.51 4.55 0.59 6.23 2.3-1.75-0.29-3.47-0.7-5.18-1.02 0.65 1.23 1.38 2.44 2.1 3.66 0.33 2.25 1.8 3.85 4.18 3.86 0.3 1.46 0.64 2.92 1.03 4.38-0.21 0.27-0.65 0.83-0.87 1.1 1.34 0.43 2.7 0.88 4.08 1.31-0.53 1.07-1.04 2.15-1.52 3.24-2.92-1.63-5.75-3.4-8.78-4.79 0.05 2.26 1.18 4.16 2.55 5.89-1.35 0.92-1.15 2.58-1.45 3.96 2.24 1.24 4.4 2.63 6.52 4.08-2.7 0.7-5.44 1.91-8.27 1.24-3.83-1.21-7.19 1.87-11.06 1.47-0.01 0.71-0.02 2.13-0.03 2.85 2.71 0.85 5.55 1.02 8.39 1.17 2.81 1.55 6.02 1.91 9.07 2.81-2.77 2.99-5.66 5.86-8.66 8.61 0.33 1 0.7 2 1.1 3.01 0 0.89 0.03 1.78 0.07 2.7-1.32 1.61-2.37 3.41-3.28 5.28-0.84 0.5-1.66 1.02-2.46 1.55-0.36-1.75-0.76-3.48-1.19-5.19-2.08 0-4.15 0.02-6.21 0.04 0.16 1.94 2.58 5.09-0.73 5.41-0.09 0.73-0.25 2.18-0.34 2.91-1.06-1.1-2.11-2.21-3.12-3.31-0.72-0.01-2.15-0.03-2.87-0.04 0.06 2.06 2.07 4.44 0.55 6.34-1.08-2.17-2.31-4.57-5.05-4.66-0.41-0.4-1.23-1.22-1.63-1.63-1.22-0.03-2.42-0.05-3.6-0.06-0.01 0.75-0.01 2.26-0.02 3.02h-2.99v3h-3v2.96c-0.47 0.01-1.42 0.04-1.89 0.05-0.07 1.56-0.05 3.13-0.24 4.7-0.93 0.68-1.89 1.31-2.87 1.89-0.01 1.45 0 2.9 0.03 4.37l-1.17 0.07c0.08-2.29 0.09-4.61 0.88-6.79 0.06-0.89 0.14-1.77 0.24-2.64-0.34-0.65-1.04-1.96-1.39-2.61-1.77-0.01-3.53-0.01-5.27 0-0.36 1.21-0.72 2.42-1.1 3.63l-0.28 2.04c-2.19-0.01-3.66 1.33-4.49 3.24l-0.23 0.13c-0.3-1.23-0.62-2.45-0.94-3.65-0.11-0.47-0.32-1.42-0.42-1.89-1.12-1.48-2.11-3.05-3.3-4.45-1.4-0.34-2.77-0.05-3.47 1.3-0.49 3.28 0.71 6.48 1.17 9.7l-0.8-0.07c-2.01-3.27-4.37-6.52-4.79-10.45-0.25-0.63-0.76-1.9-1.01-2.53h-2.65c0 0.66-0.01 1.98-0.01 2.64-1.45 0.34-3 0.55-4.05 1.7-0.2 2.11 1.17 3.87 2.05 5.68 1.47 2.83 2.3 5.93 3.29 8.96-1.44-0.47-2.86-0.91-4.28-1.31 0.02 0.79 0.05 2.36 0.07 3.15-5.21-0.79-10.54-1.95-14.59-5.57-1.67-0.37-3.3-0.9-4.97-1.06-2.76 1.21-4.9 4.38-8.21 3.79-2.64-1.56 0.7-4.59-1.13-6.7 2.88-3.04 7.18-5.56 7.13-10.3-0.68 0.02-2.04 0.07-2.72 0.09-1.47 1.18-2.98 2.31-4.5 3.41l0.23-0.79c0.71-2.19 0.72-4.5 0.78-6.77-0.63 0.06-1.87 0.19-2.5 0.26-0.78 0.28-2.35 0.85-3.14 1.13 0.55-2.83 2.89-3.78 5.54-3.5-0.02-1.41-0.01-2.8 0.02-4.19 1.55-0.81 2.76-2.06 3.6-3.6 1.3-0.02 2.62-0.03 3.97-0.03 0.31-0.63 0.92-1.91 1.23-2.54 0.08 0.63 0.25 1.91 0.33 2.55 1.24-0.01 2.49-0.01 3.76 0 0.06-1.79 0.13-3.57 0.27-5.35 1.17-3.27 1.88-6.7 1.98-10.17 0.52-0.97 1.05-1.94 1.59-2.9 0.22-1.77 0.46-3.55 0.94-5.27 0.12-1.4 0.24-2.8 0.37-4.18 1.14-0.9 2.29-1.79 3.48-2.64 0.63-1.34 1.3-2.66 2-3.96 0.71-2.42 1.66-4.89 4.1-6.03 2.99-5.44 7.03-10.15 10.79-15.05 3.09-3.03 6.58-5.64 9.53-8.83 0.02 0.6 0.07 1.8 0.1 2.4 1.12-0.03 2.25-0.05 3.41-0.06 1.15-2.44 2.18-5.1 4.4-6.79 0.04-1.28 0.09-2.54 0.16-3.8 2.15-2.11 4.36-4.16 6.51-6.28 0.54-0.04 1.62-0.1 2.15-0.13 0.97-1.47 1.95-2.93 2.99-4.35 0.97 0.31 2.72 2.49 3.48 0.65 1.73-2.33 2.77-5.34 5.41-6.85 0.23 0.76 0.69 2.29 0.92 3.06 2.96-1.46 4.5-4.39 6.28-7 0.11 0.71 0.32 2.12 0.43 2.82 1.25-0.47 2.52-0.95 3.8-1.43 0.01 0.54 0.02 1.61 0.02 2.14 0.67 0 2.01 0 2.68 0.01 0.42-0.57 1.26-1.7 1.69-2.26 2.45-0.19 4.33 0.91 5.23 3.25 0.45-0.02 1.36-0.06 1.82-0.09 1.02-0.81 2.07-1.59 3.16-2.34 0.83-1.32 1.7-2.62 2.58-3.91 1.22 2.99 4.49 3.96 6.54 6.23 0.45 0.03 1.35 0.09 1.8 0.13 0.28-1.92 1.67-2.48 3.45-2.37 0.06-0.51 0.18-1.52 0.24-2.03 0.36-1.19 0.71-2.39 1.06-3.58 2.53 1.41 4.56-2.09 6.97-0.06-0.46-1.72-2.06-3.68-0.64-5.34 0.83-1.41 1.87-2.68 2.85-3.99 1.41 0.24 2.6 0.85 3.11 2.32 0.31 0.01 0.92 0.04 1.22 0.05l0.64-2.68c0.78 2 1.44 4.04 2.11 6.1 1.08-0.84 2.15-1.7 3.24-2.56 0.07-0.81 0.2-2.44 0.27-3.25 1.07 1.45 2.14 2.91 3.25 4.37-0.37 0.5-1.1 1.5-1.47 2-0.96-0.46-1.9-0.9-2.82-1.32-0.01 1.46 0.01 2.93 0.05 4.4-1.1-0.51-2.18-0.99-3.24-1.47-0.82 4.92 4.63 7.36 4.62 12.08 2.12 2.23 0.42 5.4 1.74 8.02 0.43 0.37 1.3 1.12 1.74 1.49 0.1 0.64 0.3 1.91 0.4 2.55 1.06 0.15 2.15 0.3 3.26 0.47 0.95 1.19 1.96 2.35 3.06 3.44 0.11-0.59 0.33-1.78 0.45-2.38 1.54-0.32 3.12-0.61 4.65-1.11 2.06-0.15 4.13-0.2 6.22-0.23 0.05-0.58 0.15-1.75 0.2-2.33 1.22 0.43 2.45 0.91 3.68 1.42 1.9-0.28 3.78-0.77 5.65-1.29-0.79-1.15-1.59-2.28-2.37-3.4 3.81-0.81 8.32 0.69 11.49-2.15 0.54 0.28 1.62 0.84 2.15 1.11 0.75 1.56 1.64 3.08 2.22 4.73-0.11 2.62-1.21 5.23-0.16 7.81zm-76.88 50.24c2.91-1.62 0.2 3.31 0 0zm66.22-67.89c1.6-0.57 2.17-0.03 1.7 1.62-1.63 0.55-2.2 0.02-1.7-1.62zm5.21-40.73c0.76-0.66 2.92-1.25 3.35 0.03-0.97 0.84-2.32 2.43-3.69 2 0.08-0.51 0.25-1.53 0.34-2.03zm9.47-10.64c-1.65 0.51-2.2-0.05-1.64-1.68 1.61-0.52 2.15 0.04 1.64 1.68zm-0.46-3.78c2.92-1.74 0.26 3.33 0 0zm3.24 164.92c-0.59-0.45-1.17-0.88-1.73-1.3 0.97-1.85 1.93-3.72 3.25-5.36-0.16 2.28-0.85 4.48-1.52 6.66zm-1.12-165.5c-0.84-0.98-1.6-1.92-2.4-2.87 0.69-1.3 1.38-2.61 2.09-3.9-3.02-0.79-3.31-3.81-4-6.32-0.11-1.01-0.18-2.02-0.24-3.02-1.29-1.23-2.55-2.47-3.8-3.71-0.17 4.58-1.04 9.09-1.04 13.69 1.11 0.97 2.15 2.05 3.16 3.15-0.83 0.56-1.65 1.13-2.44 1.71 1.8 0.6 2.32 2.19 2.51 3.93-1.51-0.03-3-0.08-4.47-0.13 0.47 0.85 0.96 1.7 1.46 2.57 1.08 0.74 2.16 1.52 3.25 2.32-0.96 0.07-2.9 0.2-3.87 0.27 0.31 0.79 0.65 1.59 1.01 2.39-3.44-0.6-6.91-1.59-10.38-0.77-1.1-1.21-1.99-2.67-2.91-3.97 1.5-1.55 2.43 0.47 3.65 1.35 2.38-0.79 2.01-2.77 1.11-4.62-2.86-0.93-4.7-3.36-6.56-5.53 0.88 0 2.65 0.01 3.53 0.01-0.33-0.65-0.97-1.94-1.3-2.58 1.78 0.84 3.28 2.15 4.65 3.57 1.34-0.07 2.7-0.15 4.08-0.23-2.21-3.62-5.86-5.94-9.33-8.2-0.49-0.84-0.97-1.68-1.43-2.51 0.66-0.09 1.97-0.26 2.63-0.35-2.14-1.63-3.24-3.83-1.8-6.37 0.13-0.44 0.39-1.33 0.51-1.77 0.29-0.61 0.86-1.82 1.14-2.42 2.22-0.39 4.43-0.97 6.7-1.16 1.35 0.87 2.5 2.02 3.86 2.93 0.93-0.33 1.86-0.67 2.8-1.04 0.1-3.41 3.05-1.25 4.58-0.12 0.85 0.83 1.52 1.83 2.26 2.79 1 0.77 2 1.55 3.02 2.35 0.99 0.03 2 0.06 3.03 0.1 1.13 1.15 2.29 2.29 3.46 3.44-0.14 0.33-0.41 0.99-0.54 1.32 1 2.36-0.79 4.29-1.84 6.25-0.25-0.23-0.75-0.68-1-0.91-0.61 0.3-1.84 0.91-2.45 1.21-0.98 2.35-1.89 4.73-2.69 7.15z" enable-background="new    "/>
</svg>